<svg width="18" height="20" viewBox="0 0 18 20" fill="none" xmlns="http://www.w3.org/2000/svg">
<path d="M6.28687 10.0572C6.14985 10.0003 5.99904 9.9854 5.85352 10.0143C5.70801 10.0431 5.57432 10.1145 5.46937 10.2194L3.43969 12.25H1.5C1.30109 12.25 1.11032 12.329 0.96967 12.4697C0.829018 12.6103 0.75 12.8011 0.75 13V16.75C0.75 16.9489 0.829018 17.1397 0.96967 17.2803C1.11032 17.421 1.30109 17.5 1.5 17.5H3.43969L5.46937 19.5306C5.57427 19.6356 5.70796 19.7072 5.85352 19.7361C5.99908 19.7651 6.14998 19.7503 6.28709 19.6935C6.42421 19.6367 6.54139 19.5404 6.62379 19.417C6.70619 19.2935 6.75012 19.1484 6.75 19V10.75C6.74997 10.6017 6.70595 10.4567 6.62352 10.3334C6.54108 10.21 6.42393 10.1139 6.28687 10.0572ZM5.25 17.1897L4.28063 16.2194C4.21092 16.1497 4.12818 16.0945 4.03714 16.0569C3.94609 16.0193 3.84852 15.9999 3.75 16H2.25V13.75H3.75C3.84852 13.7501 3.94609 13.7307 4.03714 13.6931C4.12818 13.6555 4.21092 13.6003 4.28063 13.5306L5.25 12.5603V17.1897ZM11.25 14.875C11.2492 15.5365 11.0759 16.1864 10.747 16.7603C10.4182 17.3343 9.94527 17.8126 9.375 18.1478C9.20423 18.2328 9.00747 18.2496 8.82479 18.1947C8.6421 18.1397 8.4872 18.0173 8.39163 17.8522C8.29606 17.6871 8.26699 17.4918 8.31035 17.306C8.3537 17.1202 8.46622 16.9579 8.625 16.8522C8.96884 16.6492 9.25381 16.3601 9.45177 16.0134C9.64974 15.6666 9.75387 15.2743 9.75387 14.875C9.75387 14.4757 9.64974 14.0834 9.45177 13.7366C9.25381 13.3899 8.96884 13.1008 8.625 12.8978C8.46622 12.7921 8.3537 12.6298 8.31035 12.444C8.26699 12.2582 8.29606 12.0629 8.39163 11.8978C8.4872 11.7327 8.6421 11.6103 8.82479 11.5553C9.00747 11.5004 9.20423 11.5172 9.375 11.6022C9.94527 11.9374 10.4182 12.4157 10.747 12.9897C11.0759 13.5636 11.2492 14.2135 11.25 14.875ZM17.0306 5.71938L11.7806 0.469375C11.7109 0.399749 11.6282 0.344539 11.5371 0.306898C11.4461 0.269257 11.3485 0.249923 11.25 0.25H2.25C1.85218 0.25 1.47064 0.408035 1.18934 0.68934C0.908035 0.970645 0.75 1.35218 0.75 1.75V9.25C0.75 9.44891 0.829018 9.63968 0.96967 9.78033C1.11032 9.92098 1.30109 10 1.5 10C1.69891 10 1.88968 9.92098 2.03033 9.78033C2.17098 9.63968 2.25 9.44891 2.25 9.25V1.75H10.5V6.25C10.5 6.44891 10.579 6.63968 10.7197 6.78033C10.8603 6.92098 11.0511 7 11.25 7H15.75V18.25H12.75C12.5511 18.25 12.3603 18.329 12.2197 18.4697C12.079 18.6103 12 18.8011 12 19C12 19.1989 12.079 19.3897 12.2197 19.5303C12.3603 19.671 12.5511 19.75 12.75 19.75H15.75C16.1478 19.75 16.5294 19.592 16.8107 19.3107C17.092 19.0294 17.25 18.6478 17.25 18.25V6.25C17.2501 6.15148 17.2307 6.05391 17.1931 5.96286C17.1555 5.87182 17.1003 5.78908 17.0306 5.71938ZM12 2.81031L14.6897 5.5H12V2.81031Z" fill="black"/>
</svg>
