<svg fill="none" height="54" viewBox="0 0 178 54" width="178" xmlns="http://www.w3.org/2000/svg"><g fill="#0e161d"><path clip-rule="evenodd" d="m145.852 9.92935c-1.148 1.53075-.838 3.70235.693 4.85045 1.531 1.148 3.702.8378 4.851-.693l4.157-5.54328c1.148-1.53074.838-3.70234-.693-4.8504s-3.702-.83783-4.85.69291zm-109.7354 40.23595c0 1.1222.286 1.975.858 2.5586.6161.5835 1.3202.8752 2.1123.8752s1.4741-.2917 2.0462-.8752c.616-.5836.9241-1.4364.9241-2.5586v-3.1645-3.1645-3.9724-.9341c1.0971.907 2.3072 1.6672 3.6304 2.2807 1.9362.8528 4.0264 1.2792 6.2706 1.2792 2.2002 0 4.2465-.4264 6.1387-1.2792 1.9362-.8529 3.6303-2.0424 5.0825-3.5685 1.4521-1.571 2.5742-3.4114 3.3663-5.521.8361-2.1546 1.2542-4.5111 1.2542-7.0696 0-3.4114-.7041-6.4188-2.1123-9.0222-1.4081-2.6483-3.3223-4.7131-5.7426-6.19435-2.3762-1.52614-5.0605-2.28921-8.0528-2.28921-3.0363 0-5.7426.74063-8.1188 2.22188-.6092.37968-1.1851.79638-1.7278 1.24978-.0611-.9433-.3653-1.67407-.9125-2.19239-.5721-.58352-1.2541-.87529-2.0462-.87529s-1.4962.29177-2.1123.87529c-.572.53864-.858 1.39149-.858 2.55849v4.0398 4.9824 4.5111.2693 5.8577 5.1171 4.0397 3.5685 3.4338zm6.6667-20.5355c-.4841-1.3466-.7261-2.8279-.7261-4.4438v-.2693c0-2.1994.396-4.152 1.1881-5.8577.8361-1.7057 1.9802-3.0298 3.4324-3.9724 1.4961-.9875 3.2343-1.4813 5.2145-1.4813 1.4522 0 2.7943.2918 4.0264.8753 1.2322.5386 2.2883 1.3242 3.1684 2.3565.88 1.0324 1.5621 2.2444 2.0462 3.6358.484 1.3915.726 2.9177.726 4.5785s-.264 3.1869-.792 4.5784c-.4841 1.3915-1.1662 2.6034-2.0462 3.6358-.8801.9875-1.9363 1.773-3.1684 2.3565-1.1881.5387-2.4862.808-3.8944.808-1.4521 0-2.7943-.2693-4.0264-.808-1.1881-.5835-2.2222-1.3915-3.1023-2.4239-.8801-1.0323-1.5622-2.2218-2.0462-3.5684zm-35.86034 19.2563c-.35204.8079-.46205 1.5485-.33004 2.2218.13202.6733.41805 1.212.85809 1.616.48405.4488 1.01211.7181 1.58417.8079.61606.0898 1.21012-.0449 1.78222-.404.616-.3142 1.1221-.8753 1.5181-1.6832.22-.4938.4401-1.01.6601-1.5486.264-.4937.506-1.0099.7261-1.5486.22-.4937.44-1.0099.66-1.5486.2201-.4937.4401-1.0099.6601-1.5485.176-.4489.352-.8753.5281-1.2793.22-.404.418-.8304.594-1.2793l.5281-1.2119c.66-1.4813 1.4961-3.3665 2.5082-5.6557s2.0683-4.6906 3.1684-7.2043c1.1441-2.5136 2.1782-4.8477 3.1023-7.0023.264-.5835.55-1.2568.8581-2.0198.352-.7631.7041-1.5711 1.0561-2.4239.396-.8529.7701-1.7057 1.1221-2.5585.396-.8529.7701-1.6833 1.1221-2.4912.4841-1.0324.5501-1.9302.198-2.69322-.308-.76307-.836-1.30171-1.5841-1.61592-.7041-.3142-1.4522-.33665-2.2443-.06732-.748.26931-1.3421.92017-1.7821 1.95256-.4401 1.0324-.9241 2.1545-1.4522 3.3665-.528 1.167-1.0341 2.2892-1.5181 3.3665-.4401 1.0772-.8361 1.9974-1.1882 2.7605-.704 1.6608-1.4741 3.4338-2.3102 5.319-.8361 1.8853-1.6722 3.748-2.5083 5.5884l-.0223.0518c-.5518-1.2036-1.2045-2.5899-1.9579-4.1589-.44-.9426-.9681-2.0648-1.5841-3.3665-.5721-1.3017-1.2102-2.6932-1.91425-4.1745-.66007-1.4812-1.34214-2.9625-2.04621-4.4437-.66007-1.5261-1.29814-2.985-1.9142-4.37644-.48405-1.03238-1.12212-1.66079-1.9142-1.88522-.74808-.26933-1.47415-.22444-2.17823.13465-.70407.31421-1.210123.85285-1.518155 1.61592-.308032.76309-.2420251 1.66079.198021 2.69319.616064 1.3466 1.276134 2.783 1.980204 4.3091.70408 1.5261 1.38615 3.0523 2.04622 4.5784.70407 1.4813 1.36414 2.8952 1.9802 4.2418.61607 1.3017 1.14412 2.4238 1.58417 3.3665.57206 1.2119 1.12211 2.3116 1.65017 3.2991s.96806 1.8852 1.32016 2.6932c.352.808.572 1.571.66 2.2892.0881.6733-.022 1.3466-.33 2.0199-.1292.3515-.2795.7246-.451 1.1191-.0257.0544-.0513.1077-.077.1602l-.0017.0044c-.1534.3181-.3069.6533-.4604 1.0055-.176.404-.35203.8304-.52805 1.2793-.22002.5386-.46205 1.0548-.72607 1.5486-.22003.5386-.46205 1.0772-.72608 1.6159-.22001.5386-.46203 1.0772-.72605 1.6158-.22002.5387-.44007 1.0549-.66009 1.5487zm69.25874 3.8378c-.5721-.5836-.8581-1.4364-.8581-2.5586v-2.9625-3.4338-3.5685-4.0397-5.1171-5.8577-.2693-4.5111-4.9824-4.0398c0-1.167.286-2.01985.8581-2.55849.6161-.58352 1.3201-.87529 2.1122-.87529s1.4742.29177 2.0462.87529c.5473.51832.8514 1.24909.9126 2.19239.5426-.4535 1.1185-.87 1.7277-1.24978 2.3763-1.48125 5.0825-2.22188 8.1189-2.22188 2.9923 0 5.6766.76307 8.0528 2.28921 2.4199 1.48125 4.3349 3.54605 5.7429 6.19435 1.408 2.6034 2.112 5.6108 2.112 9.0222 0 2.5585-.418 4.915-1.254 7.0696-.792 2.1096-1.914 3.95-3.367 5.521-1.452 1.5261-3.1459 2.7156-5.0821 3.5685-1.8922.8528-3.9384 1.2792-6.1386 1.2792-2.2443 0-4.3345-.4264-6.2707-1.2792-1.3231-.6135-2.5333-1.3737-3.6304-2.2807v.9341 3.9724 3.1645 3.1645c0 1.1222-.308 1.975-.9241 2.5586-.572.5835-1.2541.8752-2.0462.8752s-1.4961-.2917-2.1122-.8752zm5.0825-27.5379c0 1.6159.242 3.0972.7261 4.4438.484 1.3466 1.1661 2.5361 2.0462 3.5684.8801 1.0324 1.9142 1.8404 3.1023 2.4239 1.2322.5387 2.5743.808 4.0265.808 1.4081 0 2.7062-.2693 3.8944-.808 1.2321-.5835 2.2882-1.369 3.1683-2.3565.8801-1.0324 1.5622-2.2443 2.046-3.6358.528-1.3915.792-2.9176.792-4.5784s-.242-3.187-.726-4.5785c-.4838-1.3914-1.1659-2.6034-2.046-3.6358-.8801-1.0323-1.9362-1.8179-3.1683-2.3565-1.2322-.5835-2.5743-.8753-4.0264-.8753-1.9803 0-3.7184.4938-5.2146 1.4813-1.4521.9426-2.5963 2.2667-3.4323 3.9724-.7921 1.7057-1.1882 3.6583-1.1882 5.8577zm35.6558-12.2158c-.798.7877-1.181 1.5882-1.147 2.4016.014.8529.296 1.5689.848 2.1479.551.579 1.223.8713 2.017.8769.832.0256 1.668-.3454 2.506-1.113.599-.5908 1.208-1.1022 1.826-1.5341.618-.432 1.275-.7943 1.971-1.087.676-.2531 1.441-.4361 2.294-.5491 1.112-.1311 2.262-.0933 3.451.1134 1.207.2663 2.404.701 3.59 1.3043 1.937.9854 3.455 2.2554 4.555 3.8101 1.139 1.5748 1.762 3.2848 1.868 5.13.145 1.8653-.254 3.7267-1.199 5.5844-.946 1.8577-2.215 3.2768-3.808 4.2573-1.554 1.0005-3.303 1.504-5.247 1.5102-1.924.0658-3.855-.3939-5.791-1.3793-1.186-.6033-2.212-1.3244-3.079-2.1635-.887-.7995-1.605-1.6871-2.153-2.6628-.607-1.1545-.996-2.248-1.167-3.2806-.132-1.0124-.094-2.212.114-3.5988.127-1.1296-.065-2.0234-.576-2.6815-.472-.6379-1.104-1.0093-1.896-1.114-.793-.1047-1.528.0686-2.205.5201-.698.4909-1.12 1.2713-1.266 2.3413-.273 2.1004-.286 3.9844-.04 5.6521s.859 3.3478 1.839 5.0405c.823 1.513 1.874 2.869 3.155 4.068 1.3 1.2586 2.82 2.3303 4.559 3.2151 2.964 1.5082 5.924 2.1933 8.88 2.0554 2.976-.0784 5.689-.9122 8.14-2.5015 2.47-1.5297 4.428-3.7174 5.876-6.5632 1.428-2.8063 2.043-5.6777 1.846-8.6144-.179-2.877-1.102-5.5609-2.77-8.0517-1.649-2.4311-3.956-4.4008-6.92-5.909-1.779-.90497-3.559-1.51242-5.342-1.8224s-3.498-.36165-5.146-.15503c-1.905.22465-3.624.71835-5.157 1.4811-1.513.82243-2.988 1.91283-4.426 3.27123z" fill-rule="evenodd"/><path d="m168 10.984v-7.992h1.488l2.304 3.384 2.328-3.384h1.488v7.992h-1.464v-5.76l-2.352 3.36-2.328-3.36v5.76zm-5.256 0v-6.648h-2.568v-1.344h6.624v1.344h-2.592v6.648z"/></g></svg>