<svg width="232" height="74" viewBox="0 0 232 74" fill="none" xmlns="http://www.w3.org/2000/svg">
<path fill-rule="evenodd" clip-rule="evenodd" d="M134.912 6.40967C133.85 7.82561 134.137 9.83435 135.553 10.8963C136.969 11.9583 138.978 11.6713 140.04 10.2554L143.885 5.12777C144.947 3.71183 144.66 1.70309 143.245 0.641136C141.829 -0.420821 139.82 -0.133858 138.758 1.28208L134.912 6.40967ZM33.4078 43.628C33.4078 44.666 33.6724 45.4549 34.2016 45.9947C34.7714 46.5345 35.4227 46.8043 36.1554 46.8043C36.888 46.8043 37.519 46.5345 38.0481 45.9947C38.618 45.4549 38.9029 44.666 38.9029 43.628V40.7009V37.7737V34.0992V33.2352C39.9177 34.0741 41.0371 34.7773 42.261 35.3448C44.052 36.1337 45.9854 36.5281 48.0614 36.5281C50.0966 36.5281 51.9893 36.1337 53.7396 35.3448C55.5306 34.5559 57.0977 33.4556 58.4409 32.0439C59.7842 30.5907 60.8221 28.8884 61.5548 26.937C62.3282 24.944 62.7149 22.7642 62.7149 20.3976C62.7149 17.242 62.0636 14.4602 60.7611 12.052C59.4585 9.60234 57.6879 7.69242 55.4492 6.32226C53.2511 4.91057 50.7682 4.20473 48.0003 4.20473C45.1917 4.20473 42.6884 4.88982 40.4904 6.25998C39.9269 6.61123 39.3942 6.99658 38.8922 7.41604C38.8357 6.5435 38.5543 5.8675 38.0481 5.38806C37.519 4.8483 36.888 4.57841 36.1554 4.57841C35.4227 4.57841 34.7714 4.8483 34.2016 5.38806C33.6724 5.8863 33.4078 6.67518 33.4078 7.7547V11.4915V16.1002V20.273V20.5221V25.9405V30.6738V34.4106V37.7114V40.8877V43.628ZM39.5745 24.6326C39.1268 23.387 38.9029 22.0168 38.9029 20.5221V20.273C38.9029 18.2385 39.2692 16.4324 40.0019 14.8546C40.7753 13.2769 41.8336 12.052 43.1768 11.1801C44.5608 10.2667 46.1686 9.80994 48.0003 9.80994C49.3435 9.80994 50.585 10.0798 51.7247 10.6196C52.8645 11.1178 53.8414 11.8444 54.6554 12.7994C55.4695 13.7544 56.1004 14.8754 56.5482 16.1625C56.9959 17.4496 57.2198 18.8613 57.2198 20.3976C57.2198 21.9338 56.9756 23.3455 56.4871 24.6326C56.0394 25.9197 55.4085 27.0408 54.5944 27.9957C53.7803 28.9092 52.8034 29.6358 51.6637 30.1755C50.5647 30.6738 49.3639 30.9229 48.0614 30.9229C46.7181 30.9229 45.4766 30.6738 44.3369 30.1755C43.2379 29.6358 42.2813 28.8884 41.4673 27.9335C40.6532 26.9785 40.0223 25.8782 39.5745 24.6326ZM6.40374 42.4447C6.0781 43.1921 5.97634 43.8772 6.09845 44.5C6.22057 45.1228 6.48514 45.621 6.89219 45.9947C7.33993 46.4099 7.82838 46.659 8.35754 46.7421C8.9274 46.8251 9.47691 46.7005 10.0061 46.3684C10.5759 46.0777 11.044 45.5587 11.4104 44.8114C11.6139 44.3546 11.8174 43.8772 12.0209 43.3789C12.2651 42.9222 12.489 42.4447 12.6925 41.9465C12.8961 41.4898 13.0996 41.0123 13.3031 40.514C13.5066 40.0573 13.7101 39.5798 13.9137 39.0816C14.0765 38.6664 14.2393 38.272 14.4021 37.8983C14.6056 37.5246 14.7888 37.1302 14.9516 36.715L15.4401 35.5939C16.0506 34.2237 16.824 32.4799 17.7602 30.3624C18.6964 28.2449 19.6733 26.0235 20.6909 23.6984C21.7492 21.3733 22.7058 19.2142 23.5606 17.2213C23.8048 16.6815 24.0694 16.0587 24.3543 15.3529C24.6799 14.647 25.0056 13.8997 25.3312 13.1108C25.6975 12.3219 26.0435 11.533 26.3692 10.7441C26.7355 9.95526 27.0815 9.18714 27.4071 8.43978C27.8549 7.48482 27.9159 6.65442 27.5903 5.94858C27.3054 5.24274 26.8169 4.74449 26.1249 4.45385C25.4737 4.16321 24.7817 4.14245 24.049 4.39158C23.3571 4.6407 22.8075 5.24274 22.4005 6.1977C21.9935 7.15266 21.5457 8.19066 21.0573 9.3117C20.5688 10.3912 20.1007 11.4292 19.653 12.4257C19.2459 13.4222 18.8796 14.2734 18.554 14.9792C17.9027 16.5154 17.1904 18.1555 16.417 19.8993C15.6436 21.6432 14.8702 23.3662 14.0968 25.0686L14.0762 25.1165C13.5657 24.0032 12.9621 22.7209 12.2651 21.2695C11.8581 20.3976 11.3697 19.3596 10.7998 18.1555C10.2706 16.9514 9.68043 15.6643 9.02916 14.2941C8.4186 12.9239 7.78768 11.5538 7.13641 10.1836C6.52585 8.77194 5.93564 7.42254 5.36578 6.13542C4.91803 5.18046 4.32782 4.59918 3.59514 4.39158C2.90317 4.14245 2.23155 4.18397 1.58028 4.51613C0.929015 4.80677 0.460916 5.30502 0.175986 6.01086C-0.108944 6.7167 -0.0478873 7.5471 0.359155 8.50206C0.929015 9.74766 1.53958 11.0763 2.19085 12.488C2.84211 13.8997 3.47303 15.3114 4.08359 16.723C4.73486 18.0932 5.34543 19.4011 5.91528 20.6467C6.48514 21.8508 6.9736 22.8888 7.38064 23.7607C7.90979 24.8817 8.4186 25.899 8.90705 26.8124C9.3955 27.7259 9.80254 28.5563 10.1282 29.3036C10.4538 30.051 10.6573 30.7568 10.7387 31.4211C10.8201 32.0439 10.7184 32.6667 10.4335 33.2896C10.3139 33.6147 10.1749 33.9597 10.0163 34.3247C9.99257 34.375 9.96879 34.4244 9.94501 34.4729L9.94349 34.477C9.80153 34.7712 9.65957 35.0813 9.51761 35.4071C9.35479 35.7808 9.19198 36.1752 9.02916 36.5904C8.82564 37.0886 8.60177 37.5661 8.35754 38.0228C8.15402 38.5211 7.93015 39.0193 7.68592 39.5176C7.4824 40.0158 7.25853 40.514 7.0143 41.0123C6.81078 41.5105 6.60726 41.988 6.40374 42.4447ZM70.4681 45.9947C69.9389 45.4549 69.6743 44.666 69.6743 43.628V40.8877V37.7114V34.4106V30.6738V25.9405V20.5221V20.273V16.1002V11.4915V7.7547C69.6743 6.67518 69.9389 5.8863 70.4681 5.38806C71.0379 4.8483 71.6892 4.57841 72.4219 4.57841C73.1546 4.57841 73.7855 4.8483 74.3146 5.38806C74.8208 5.8675 75.1022 6.5435 75.1588 7.41604C75.6607 6.99658 76.1934 6.61123 76.7569 6.25998C78.9549 4.88982 81.4582 4.20473 84.2668 4.20473C87.0347 4.20473 89.5177 4.91057 91.7157 6.32226C93.9544 7.69242 95.7251 9.60234 97.0276 12.052C98.3301 14.4602 98.9814 17.242 98.9814 20.3976C98.9814 22.7642 98.5947 24.944 97.8213 26.937C97.0887 28.8884 96.0507 30.5907 94.7075 32.0439C93.3642 33.4556 91.7971 34.5559 90.0061 35.3448C88.2558 36.1337 86.3631 36.5281 84.3279 36.5281C82.252 36.5281 80.3185 36.1337 78.5275 35.3448C77.3036 34.7773 76.1842 34.0741 75.1694 33.2352V34.0992V37.7737V40.7009V43.628C75.1694 44.666 74.8845 45.4549 74.3146 45.9947C73.7855 46.5345 73.1546 46.8043 72.4219 46.8043C71.6892 46.8043 71.0379 46.5345 70.4681 45.9947ZM75.1694 20.5221C75.1694 22.0168 75.3933 23.387 75.841 24.6326C76.2888 25.8782 76.9197 26.9785 77.7338 27.9335C78.5479 28.8884 79.5044 29.6358 80.6034 30.1755C81.7432 30.6738 82.9846 30.9229 84.3279 30.9229C85.6304 30.9229 86.8312 30.6738 87.9302 30.1755C89.0699 29.6358 90.0468 28.9092 90.8609 27.9957C91.675 27.0408 92.3059 25.9197 92.7537 24.6326C93.2421 23.3455 93.4863 21.9338 93.4863 20.3976C93.4863 18.8613 93.2625 17.4496 92.8147 16.1625C92.367 14.8754 91.7361 13.7544 90.922 12.7994C90.1079 11.8444 89.131 11.1178 87.9913 10.6196C86.8515 10.0798 85.6101 9.80994 84.2668 9.80994C82.4351 9.80994 80.8273 10.2667 79.4434 11.1801C78.1001 12.052 77.0418 13.2769 76.2684 14.8546C75.5358 16.4324 75.1694 18.2385 75.1694 20.273V20.5221ZM14.6521 70.8167C14.1756 70.8167 13.7095 70.7507 13.2538 70.6188C12.798 70.4978 12.3837 70.2779 12.0108 69.959C11.6379 69.6292 11.3427 69.1728 11.1252 68.59C10.9077 68.0073 10.799 67.2541 10.799 66.3304C10.799 65.0219 11.0993 63.9883 11.7001 63.2296C12.3008 62.4709 13.2123 62.0916 14.4345 62.0916C14.6313 62.0916 14.8748 62.119 15.1648 62.174C15.4548 62.229 15.75 62.3115 16.0504 62.4214C16.1719 62.4615 16.2859 62.5069 16.3922 62.5578V58.8258H18.008V68.8375C18.008 69.1783 17.9044 69.4752 17.6973 69.7281C17.5005 69.981 17.2363 70.1899 16.9049 70.3549C16.5734 70.5088 16.2109 70.6243 15.8173 70.7012C15.4237 70.7782 15.0353 70.8167 14.6521 70.8167ZM14.6987 69.3158C15.1648 69.3158 15.5635 69.2553 15.895 69.1343C16.2264 69.0134 16.3922 68.854 16.3922 68.656V64.0543C16.1229 63.8894 15.838 63.7684 15.5377 63.6914C15.2373 63.6145 14.9473 63.576 14.6676 63.576C14.1601 63.576 13.7406 63.6859 13.4091 63.9059C13.088 64.1148 12.8498 64.4282 12.6944 64.846C12.5391 65.2528 12.4614 65.7586 12.4614 66.3634C12.4614 66.9132 12.5235 67.4135 12.6478 67.8643C12.7721 68.3042 12.9948 68.656 13.3159 68.9199C13.6474 69.1838 14.1083 69.3158 14.6987 69.3158ZM3.33176e-09 70.5693L4.03954 59.568H5.85733L9.78811 70.5693H7.98586L6.96284 67.5839H2.72542L1.70904 70.5693H3.33176e-09ZM4.83724 61.381L6.45416 66.0995H3.2308L4.83724 61.381ZM22.3573 70.6188C22.813 70.7507 23.2791 70.8167 23.7556 70.8167C24.1388 70.8167 24.5272 70.7782 24.9208 70.7012C25.3144 70.6243 25.677 70.5088 26.0084 70.3549C26.3399 70.1899 26.604 69.981 26.8008 69.7281C27.0079 69.4752 27.1115 69.1783 27.1115 68.8375V58.8258H25.4957V62.5578C25.3894 62.5069 25.2755 62.4615 25.1539 62.4214C24.8535 62.3115 24.5583 62.229 24.2683 62.174C23.9783 62.119 23.7349 62.0916 23.5381 62.0916C22.3159 62.0916 21.4044 62.4709 20.8036 63.2296C20.2029 63.9883 19.9025 65.0219 19.9025 66.3304C19.9025 67.2541 20.0112 68.0073 20.2288 68.59C20.4463 69.1728 20.7415 69.6292 21.1143 69.959C21.4872 70.2779 21.9015 70.4978 22.3573 70.6188ZM24.9985 69.1343C24.6671 69.2553 24.2683 69.3158 23.8022 69.3158C23.2118 69.3158 22.7509 69.1838 22.4194 68.9199C22.0983 68.656 21.8756 68.3042 21.7514 67.8643C21.6271 67.4135 21.5649 66.9132 21.5649 66.3634C21.5649 65.7586 21.6426 65.2528 21.798 64.846C21.9533 64.4282 22.1916 64.1148 22.5127 63.9059C22.8441 63.6859 23.2636 63.576 23.7711 63.576C24.0508 63.576 24.3408 63.6145 24.6412 63.6914C24.9416 63.7684 25.2264 63.8894 25.4957 64.0543V68.656C25.4957 68.854 25.33 69.0134 24.9985 69.1343ZM29.41 70.5693V63.0482C29.5446 62.9602 29.7932 62.8393 30.1557 62.6853C30.5183 62.5314 30.9481 62.3994 31.4453 62.2895C31.9424 62.1685 32.4448 62.1081 32.9523 62.1081C33.2113 62.1081 33.4236 62.13 33.5893 62.174C33.7551 62.218 33.8949 62.2675 34.0088 62.3225V63.7079C33.7706 63.6749 33.522 63.653 33.2631 63.642C33.0041 63.62 32.7452 63.62 32.4862 63.642C32.2273 63.653 31.9735 63.6749 31.7249 63.7079C31.4763 63.7409 31.2485 63.7739 31.0413 63.8069V70.5693H29.41ZM36.9672 70.3219C37.5369 70.6518 38.205 70.8167 38.9715 70.8167C39.5411 70.8167 40.0539 70.7617 40.5096 70.6518C40.9653 70.5528 41.3745 70.4208 41.737 70.2559V68.656C41.5506 68.755 41.3279 68.8595 41.0689 68.9694C40.81 69.0684 40.5251 69.1508 40.2144 69.2168C39.914 69.2828 39.5877 69.3158 39.2356 69.3158C38.4484 69.3158 37.8528 69.0794 37.4489 68.6065C37.0945 68.1821 36.8955 67.5883 36.852 66.8252H42.3274C42.3377 65.8796 42.2238 65.0549 41.9856 64.3512C41.7577 63.6365 41.3848 63.0812 40.8669 62.6853C40.349 62.2895 39.6706 62.0916 38.8316 62.0916C37.6923 62.0916 36.8015 62.4654 36.1593 63.2131C35.5275 63.9498 35.2116 65.0384 35.2116 66.4789C35.2116 67.4135 35.3618 68.2052 35.6621 68.854C35.9729 69.5027 36.4079 69.992 36.9672 70.3219ZM36.8906 65.5387C36.9267 65.2171 36.9833 64.9422 37.0604 64.714C37.2158 64.2742 37.4385 63.9663 37.7285 63.7904C38.0185 63.6035 38.3707 63.51 38.785 63.51C39.4272 63.51 39.8985 63.7079 40.1989 64.1038C40.4481 64.4231 40.6046 64.9014 40.6685 65.5387H36.8906ZM46.456 70.8167C45.8967 70.8167 45.4202 70.7507 45.0266 70.6188C44.6434 70.4978 44.2653 70.3439 43.8925 70.157V68.5241C44.1618 68.7 44.4259 68.8595 44.6848 69.0024C44.9438 69.1343 45.2131 69.2388 45.4927 69.3158C45.7828 69.3927 46.1039 69.4312 46.456 69.4312C46.9014 69.4312 47.2484 69.3323 47.497 69.1343C47.7559 68.9364 47.8854 68.689 47.8854 68.3921C47.8854 68.1392 47.8025 67.9413 47.6368 67.7984C47.4814 67.6554 47.2795 67.5345 47.0309 67.4355C46.7823 67.3365 46.5233 67.2376 46.254 67.1386C45.9744 67.0616 45.6947 66.9737 45.4151 66.8747C45.1354 66.7648 44.8765 66.6218 44.6382 66.4459C44.4104 66.2589 44.2239 66.0225 44.0789 65.7367C43.9443 65.4508 43.8769 65.0989 43.8769 64.6811C43.8769 64.2192 43.965 63.8289 44.1411 63.51C44.3171 63.1801 44.545 62.9162 44.8247 62.7183C45.1147 62.5094 45.4306 62.361 45.7724 62.273C46.1246 62.174 46.4664 62.1245 46.7978 62.1245C47.3468 62.1355 47.7922 62.207 48.134 62.339C48.4861 62.4709 48.8279 62.6304 49.1594 62.8173L49.1749 64.3017C48.8021 64.0928 48.4499 63.9114 48.1184 63.7574C47.787 63.6035 47.4038 63.5265 46.9687 63.5265C46.5648 63.5265 46.2281 63.609 45.9588 63.7739C45.6895 63.9279 45.5549 64.1588 45.5549 64.4666C45.5549 64.7305 45.6274 64.9395 45.7724 65.0934C45.9278 65.2473 46.1246 65.3683 46.3628 65.4563C46.6114 65.5442 46.8755 65.6322 47.1552 65.7202C47.4141 65.8081 47.6834 65.9016 47.9631 66.0005C48.2427 66.0885 48.5017 66.2205 48.7399 66.3964C48.9781 66.5723 49.1698 66.8032 49.3148 67.0891C49.4701 67.375 49.5478 67.7489 49.5478 68.2107C49.5375 68.8265 49.3821 69.3268 49.0817 69.7116C48.7917 70.0965 48.4085 70.3769 47.932 70.5528C47.4555 70.7287 46.9635 70.8167 46.456 70.8167ZM52.2791 70.6188C52.6727 70.7507 53.1492 70.8167 53.7085 70.8167C54.216 70.8167 54.708 70.7287 55.1845 70.5528C55.6609 70.3769 56.0442 70.0965 56.3342 69.7116C56.6346 69.3268 56.7899 68.8265 56.8003 68.2107C56.8003 67.7489 56.7226 67.375 56.5672 67.0891C56.4222 66.8032 56.2306 66.5723 55.9924 66.3964C55.7542 66.2205 55.4952 66.0885 55.2155 66.0005C54.9359 65.9016 54.6666 65.8081 54.4076 65.7202C54.128 65.6322 53.8639 65.5442 53.6153 65.4563C53.377 65.3683 53.1802 65.2473 53.0249 65.0934C52.8799 64.9395 52.8074 64.7305 52.8074 64.4666C52.8074 64.1588 52.942 63.9279 53.2113 63.7739C53.4806 63.609 53.8172 63.5265 54.2212 63.5265C54.6562 63.5265 55.0395 63.6035 55.3709 63.7574C55.7024 63.9114 56.0545 64.0928 56.4274 64.3017L56.4119 62.8173C56.0804 62.6304 55.7386 62.4709 55.3865 62.339C55.0446 62.207 54.5993 62.1355 54.0503 62.1245C53.7188 62.1245 53.377 62.174 53.0249 62.273C52.6831 62.361 52.3672 62.5094 52.0771 62.7183C51.7975 62.9162 51.5696 63.1801 51.3935 63.51C51.2174 63.8289 51.1294 64.2192 51.1294 64.6811C51.1294 65.0989 51.1967 65.4508 51.3314 65.7367C51.4764 66.0225 51.6628 66.2589 51.8907 66.4459C52.1289 66.6218 52.3879 66.7648 52.6675 66.8747C52.9472 66.9737 53.2269 67.0616 53.5065 67.1386C53.7758 67.2376 54.0348 67.3365 54.2833 67.4355C54.5319 67.5345 54.7339 67.6554 54.8893 67.7984C55.055 67.9413 55.1379 68.1392 55.1379 68.3921C55.1379 68.689 55.0084 68.9364 54.7494 69.1343C54.5009 69.3323 54.1539 69.4312 53.7085 69.4312C53.3563 69.4312 53.0352 69.3927 52.7452 69.3158C52.4656 69.2388 52.1963 69.1343 51.9373 69.0024C51.6784 68.8595 51.4142 68.7 51.1449 68.5241V70.157C51.5178 70.3439 51.8959 70.4978 52.2791 70.6188ZM58.7548 70.5693V62.339H60.3861L60.4016 70.5693H58.7548ZM58.7081 60.97V59.4031H60.4483V60.97H58.7081ZM63.5053 62.6358C63.2257 62.7348 62.9719 62.8448 62.744 62.9657V70.5693H64.3754V63.9059C64.6343 63.8069 64.9088 63.7299 65.1988 63.6749C65.4992 63.62 65.7892 63.5925 66.0689 63.5925C66.4625 63.5925 66.7784 63.642 67.0166 63.7409C67.2652 63.8399 67.4517 63.9773 67.576 64.1533C67.7106 64.3182 67.7986 64.5051 67.8401 64.714C67.8919 64.912 67.9178 65.1154 67.9178 65.3243V70.5693H69.5491V65.0934C69.5491 64.4227 69.4352 63.8674 69.2073 63.4275C68.9794 62.9767 68.6324 62.6468 68.1663 62.4379C67.7002 62.218 67.0995 62.1081 66.3641 62.1081C66.0534 62.1081 65.7323 62.13 65.4008 62.174C65.0694 62.218 64.7431 62.2785 64.422 62.3555C64.1009 62.4324 63.7954 62.5259 63.5053 62.6358ZM74.9394 70.8167C74.1833 70.8057 73.5411 70.6408 73.0128 70.3219C72.4949 69.992 72.1013 69.5192 71.832 68.9034C71.5731 68.2877 71.4436 67.54 71.4436 66.6603C71.4436 65.7257 71.5524 64.9614 71.7699 64.3677C71.9978 63.7739 72.3033 63.3121 72.6865 62.9822C73.0801 62.6523 73.5203 62.4269 74.0072 62.306C74.5043 62.174 75.0171 62.1081 75.5453 62.1081C76.1046 62.1081 76.6122 62.185 77.0679 62.339C77.5236 62.4929 77.8913 62.7293 78.171 63.0482C78.4507 63.3561 78.5905 63.7574 78.5905 64.2522V70.8167C78.5905 71.2565 78.5232 71.6634 78.3885 72.0372C78.2642 72.4221 78.0571 72.7629 77.767 73.0598C77.4874 73.3567 77.1145 73.5876 76.6484 73.7526C76.1823 73.9175 75.6126 74 74.9394 74C74.4008 74 73.9191 73.9505 73.4945 73.8515C73.0698 73.7636 72.7176 73.6701 72.438 73.5711V71.9877C72.6037 72.0537 72.8108 72.1252 73.0594 72.2022C73.308 72.2791 73.5825 72.3451 73.8829 72.4001C74.1936 72.4661 74.5095 72.499 74.8306 72.499C75.4417 72.499 75.8975 72.4166 76.1978 72.2516C76.5086 72.0867 76.7157 71.8723 76.8193 71.6084C76.9229 71.3555 76.9747 71.0806 76.9747 70.7837V70.2248C76.8918 70.2749 76.8038 70.3237 76.7105 70.3714C76.4412 70.5033 76.1512 70.6078 75.8405 70.6847C75.5401 70.7727 75.2397 70.8167 74.9394 70.8167ZM75.2035 69.4147C75.5039 69.4147 75.8094 69.3763 76.1202 69.2993C76.4309 69.2113 76.7157 69.0849 76.9747 68.9199V64.5821C76.9747 64.2962 76.9022 64.0873 76.7572 63.9553C76.6225 63.8124 76.4361 63.7134 76.1978 63.6585C75.9596 63.6035 75.7058 63.576 75.4365 63.576C74.8047 63.576 74.3179 63.7134 73.9761 63.9883C73.6446 64.2522 73.4168 64.6151 73.2925 65.0769C73.1682 65.5387 73.106 66.05 73.106 66.6108C73.106 67.4465 73.2769 68.1227 73.6188 68.6395C73.9606 69.1563 74.4888 69.4147 75.2035 69.4147ZM84.4988 59.568L87.6372 70.5693H89.3618L91.8082 62.3072L94.2403 70.5693H95.9493L99.1033 59.568H97.2544L94.993 68.2647L92.5468 59.568H91.0708L88.6442 68.2775L86.3477 59.568H84.4988ZM103.985 70.8167C102.722 70.8167 101.779 70.4373 101.158 69.6786C100.547 68.9199 100.241 67.8368 100.241 66.4294C100.241 64.934 100.557 63.8399 101.189 63.1472C101.831 62.4434 102.753 62.0916 103.954 62.0916C104.814 62.0916 105.524 62.262 106.083 62.6029C106.642 62.9327 107.057 63.422 107.326 64.0708C107.595 64.7195 107.73 65.5057 107.73 66.4294C107.73 67.8259 107.404 68.9089 106.751 69.6786C106.109 70.4373 105.187 70.8167 103.985 70.8167ZM103.97 69.3488C104.498 69.3488 104.918 69.2278 105.228 68.9859C105.539 68.733 105.762 68.3866 105.896 67.9468C106.041 67.507 106.114 67.0012 106.114 66.4294C106.114 65.7916 106.041 65.2583 105.896 64.8295C105.751 64.4007 105.524 64.0818 105.213 63.8729C104.902 63.653 104.488 63.543 103.97 63.543C103.452 63.543 103.038 63.6585 102.727 63.8894C102.416 64.1203 102.194 64.4501 102.059 64.879C101.924 65.3078 101.857 65.8246 101.857 66.4294C101.857 67.342 102.017 68.0568 102.339 68.5736C102.66 69.0904 103.203 69.3488 103.97 69.3488ZM109.627 63.0482V70.5693H111.259V63.8069C111.466 63.7739 111.694 63.7409 111.942 63.7079C112.191 63.6749 112.445 63.653 112.703 63.642C112.962 63.62 113.221 63.62 113.48 63.642C113.739 63.653 113.988 63.6749 114.226 63.7079V62.3225C114.112 62.2675 113.972 62.218 113.807 62.174C113.641 62.13 113.428 62.1081 113.17 62.1081C112.662 62.1081 112.16 62.1685 111.662 62.2895C111.165 62.3994 110.735 62.5314 110.373 62.6853C110.01 62.8393 109.762 62.9602 109.627 63.0482ZM117.449 70.5693L117.454 66.8653L120.587 70.5693H122.684L118.742 65.8793L122.296 62.2895H120.292L117.456 65.3885L117.464 59.1557H115.833V70.5693H117.449ZM127.112 70.7177C127.402 70.7727 127.645 70.8002 127.842 70.8002C128.608 70.8002 129.261 70.6298 129.799 70.2889C130.338 69.937 130.747 69.4477 131.027 68.821C131.306 68.1832 131.446 67.4355 131.446 66.5778C131.446 65.4453 131.275 64.5546 130.934 63.9059C130.592 63.2461 130.136 62.7788 129.566 62.5039C128.997 62.229 128.365 62.0916 127.671 62.0916C127.277 62.0916 126.878 62.1245 126.475 62.1905C126.081 62.2455 125.718 62.3445 125.387 62.4874C125.056 62.6194 124.786 62.8008 124.579 63.0317C124.382 63.2626 124.284 63.5485 124.284 63.8894V73.8845H125.9V70.3497C126.007 70.4065 126.121 70.4578 126.241 70.5033C126.532 70.6023 126.822 70.6738 127.112 70.7177ZM128.79 69.0189C128.458 69.2388 128.044 69.3488 127.547 69.3488C127.277 69.3488 127.003 69.3103 126.723 69.2333C126.443 69.1453 126.169 69.0244 125.9 68.8704V64.2687C125.9 64.0488 126.055 63.8839 126.366 63.7739C126.687 63.653 127.106 63.5925 127.624 63.5925C128.204 63.5925 128.65 63.7244 128.96 63.9883C129.271 64.2412 129.483 64.5931 129.597 65.0439C129.722 65.4947 129.784 65.995 129.784 66.5448C129.784 67.1386 129.701 67.6444 129.535 68.0623C129.37 68.4801 129.121 68.799 128.79 69.0189ZM134.943 70.5693H133.327V59.1557H134.943V70.5693ZM138.904 70.6847C139.277 70.7727 139.665 70.8167 140.069 70.8167C140.753 70.8167 141.364 70.7617 141.902 70.6518C142.441 70.5528 142.865 70.3604 143.176 70.0745C143.497 69.7776 143.658 69.3598 143.658 68.821V64.8625C143.658 64.4446 143.601 64.0818 143.487 63.7739C143.373 63.466 143.212 63.2076 143.005 62.9987C142.809 62.7788 142.581 62.6084 142.322 62.4874C142.063 62.3555 141.783 62.262 141.483 62.207C141.193 62.141 140.903 62.1081 140.613 62.1081C140.022 62.1081 139.447 62.174 138.888 62.306C138.339 62.4269 137.92 62.5919 137.63 62.8008V64.4172C137.93 64.1533 138.313 63.9498 138.779 63.8069C139.245 63.653 139.696 63.576 140.131 63.576C140.742 63.576 141.213 63.7134 141.545 63.9883C141.876 64.2522 142.042 64.6756 142.042 65.2583V66.0407C141.921 65.9669 141.786 65.8986 141.638 65.8356C141.39 65.7147 141.105 65.6212 140.784 65.5552C140.473 65.4893 140.121 65.4563 139.727 65.4563C139.137 65.4563 138.629 65.5552 138.204 65.7531C137.78 65.9511 137.454 66.248 137.226 66.6438C136.998 67.0396 136.884 67.5455 136.884 68.1612C136.884 68.678 136.972 69.1124 137.148 69.4642C137.334 69.8051 137.578 70.0745 137.878 70.2724C138.189 70.4703 138.531 70.6078 138.904 70.6847ZM142.042 67.1176V68.722C142.042 69.0409 141.897 69.2443 141.607 69.3323C141.317 69.4202 140.866 69.4642 140.255 69.4642C139.965 69.4642 139.686 69.4202 139.416 69.3323C139.157 69.2333 138.94 69.0849 138.764 68.8869C138.588 68.678 138.5 68.4086 138.5 68.0788C138.5 67.6389 138.65 67.309 138.95 67.0891C139.261 66.8692 139.712 66.7593 140.302 66.7593C140.747 66.7593 141.162 66.8197 141.545 66.9407C141.728 66.9933 141.894 67.0523 142.042 67.1176ZM149.384 70.7342C148.907 70.7342 148.441 70.6628 147.986 70.5198C147.53 70.3769 147.116 70.146 146.743 69.8271C146.38 69.4972 146.09 69.0629 145.873 68.5241C145.655 67.9743 145.546 67.2926 145.546 66.4789C145.546 65.6432 145.65 64.945 145.857 64.3842C146.064 63.8234 146.349 63.3781 146.712 63.0482C147.074 62.7073 147.483 62.4654 147.939 62.3225C148.405 62.1795 148.882 62.1081 149.368 62.1081C149.783 62.1081 150.197 62.152 150.611 62.24C151.026 62.317 151.409 62.4379 151.761 62.6029V64.1533C151.409 63.9883 151.057 63.8619 150.704 63.7739C150.352 63.6749 149.985 63.6255 149.601 63.6255C148.793 63.6255 148.182 63.8399 147.768 64.2687C147.364 64.6975 147.162 65.3903 147.162 66.3469C147.162 67.3365 147.354 68.0623 147.737 68.5241C148.131 68.9749 148.768 69.2003 149.648 69.2003C150.031 69.2003 150.404 69.1508 150.767 69.0519C151.129 68.9419 151.466 68.81 151.777 68.656V70.2064C151.414 70.3824 151.036 70.5143 150.642 70.6023C150.249 70.6902 149.829 70.7342 149.384 70.7342ZM155.01 70.3219C155.579 70.6518 156.247 70.8167 157.014 70.8167C157.584 70.8167 158.096 70.7617 158.552 70.6518C159.008 70.5528 159.417 70.4208 159.779 70.2559V68.656C159.593 68.755 159.37 68.8595 159.111 68.9694C158.852 69.0684 158.568 69.1508 158.257 69.2168C157.956 69.2828 157.63 69.3158 157.278 69.3158C156.491 69.3158 155.895 69.0794 155.491 68.6065C155.137 68.1821 154.938 67.5883 154.894 66.8252H160.37C160.38 65.8796 160.266 65.0549 160.028 64.3512C159.8 63.6365 159.427 63.0812 158.909 62.6853C158.391 62.2895 157.713 62.0916 156.874 62.0916C155.735 62.0916 154.844 62.4654 154.202 63.2131C153.57 63.9498 153.254 65.0384 153.254 66.4789C153.254 67.4135 153.404 68.2052 153.705 68.854C154.015 69.5027 154.45 69.992 155.01 70.3219ZM154.933 65.5387C154.969 65.2171 155.026 64.9422 155.103 64.714C155.258 64.2742 155.481 63.9663 155.771 63.7904C156.061 63.6035 156.413 63.51 156.827 63.51C157.47 63.51 157.941 63.7079 158.241 64.1038C158.49 64.4231 158.647 64.9014 158.711 65.5387H154.933ZM171.182 70.7342C169.556 70.7342 168.328 70.2669 167.5 69.3323C166.671 68.3976 166.257 66.9737 166.257 65.0604C166.257 63.1801 166.666 61.7672 167.484 60.8215C168.302 59.8649 169.535 59.3866 171.182 59.3866C171.731 59.3866 172.275 59.4581 172.813 59.601C173.362 59.744 173.891 59.9419 174.398 60.1948V61.8277C173.891 61.5088 173.383 61.2779 172.875 61.1349C172.378 60.981 171.886 60.904 171.399 60.904C170.643 60.904 170.012 61.047 169.504 61.3329C169.007 61.6187 168.634 62.0641 168.385 62.6688C168.147 63.2736 168.028 64.0763 168.028 65.0769C168.028 66.0555 168.152 66.8527 168.401 67.4685C168.649 68.0732 169.022 68.5186 169.52 68.8045C170.027 69.0794 170.669 69.2168 171.446 69.2168C171.912 69.2168 172.394 69.1453 172.891 69.0024C173.388 68.8484 173.891 68.6175 174.398 68.3097V69.9425C174.087 70.1075 173.751 70.2504 173.388 70.3714C173.026 70.4923 172.658 70.5803 172.285 70.6353C171.912 70.7012 171.544 70.7342 171.182 70.7342ZM176.884 69.6786C177.505 70.4373 178.448 70.8167 179.712 70.8167C180.913 70.8167 181.835 70.4373 182.477 69.6786C183.13 68.9089 183.456 67.8259 183.456 66.4294C183.456 65.5057 183.321 64.7195 183.052 64.0708C182.783 63.422 182.368 62.9327 181.809 62.6029C181.25 62.262 180.54 62.0916 179.681 62.0916C178.479 62.0916 177.557 62.4434 176.915 63.1472C176.283 63.8399 175.967 64.934 175.967 66.4294C175.967 67.8368 176.273 68.9199 176.884 69.6786ZM180.955 68.9859C180.644 69.2278 180.224 69.3488 179.696 69.3488C178.93 69.3488 178.386 69.0904 178.065 68.5736C177.744 68.0568 177.583 67.342 177.583 66.4294C177.583 65.8246 177.65 65.3078 177.785 64.879C177.92 64.4501 178.142 64.1203 178.453 63.8894C178.764 63.6585 179.178 63.543 179.696 63.543C180.214 63.543 180.628 63.653 180.939 63.8729C181.25 64.0818 181.478 64.4007 181.623 64.8295C181.768 65.2583 181.84 65.7916 181.84 66.4294C181.84 67.0012 181.768 67.507 181.623 67.9468C181.488 68.3866 181.265 68.733 180.955 68.9859ZM185.353 62.9657C185.581 62.8448 185.835 62.7348 186.115 62.6358C186.405 62.5259 186.71 62.4324 187.031 62.3555C187.352 62.2785 187.679 62.218 188.01 62.174C188.342 62.13 188.663 62.1081 188.973 62.1081C189.709 62.1081 190.31 62.218 190.776 62.4379C191.242 62.6468 191.589 62.9767 191.817 63.4275C192.044 63.8674 192.158 64.4227 192.158 65.0934V70.5693H190.527V65.3243C190.527 65.1154 190.501 64.912 190.449 64.714C190.408 64.5051 190.32 64.3182 190.185 64.1533C190.061 63.9773 189.875 63.8399 189.626 63.7409C189.388 63.642 189.072 63.5925 188.678 63.5925C188.399 63.5925 188.109 63.62 187.808 63.6749C187.518 63.7299 187.244 63.8069 186.985 63.9059V70.5693H185.353V62.9657ZM196.492 70.5198C196.948 70.6628 197.414 70.7342 197.89 70.7342C198.336 70.7342 198.755 70.6902 199.149 70.6023C199.543 70.5143 199.921 70.3824 200.283 70.2064V68.656C199.972 68.81 199.636 68.9419 199.273 69.0519C198.911 69.1508 198.538 69.2003 198.155 69.2003C197.274 69.2003 196.637 68.9749 196.244 68.5241C195.86 68.0623 195.669 67.3365 195.669 66.3469C195.669 65.3903 195.871 64.6975 196.275 64.2687C196.689 63.8399 197.3 63.6255 198.108 63.6255C198.491 63.6255 198.859 63.6749 199.211 63.7739C199.563 63.8619 199.915 63.9883 200.268 64.1533V62.6029C199.915 62.4379 199.532 62.317 199.118 62.24C198.704 62.152 198.289 62.1081 197.875 62.1081C197.388 62.1081 196.912 62.1795 196.446 62.3225C195.99 62.4654 195.581 62.7073 195.218 63.0482C194.856 63.3781 194.571 63.8234 194.364 64.3842C194.156 64.945 194.053 65.6432 194.053 66.4789C194.053 67.2926 194.162 67.9743 194.379 68.5241C194.597 69.0629 194.887 69.4972 195.249 69.8271C195.622 70.146 196.036 70.3769 196.492 70.5198ZM205.52 70.8167C204.754 70.8167 204.086 70.6518 203.516 70.3219C202.957 69.992 202.522 69.5027 202.211 68.854C201.911 68.2052 201.761 67.4135 201.761 66.4789C201.761 65.0384 202.076 63.9498 202.708 63.2131C203.35 62.4654 204.241 62.0916 205.381 62.0916C206.22 62.0916 206.898 62.2895 207.416 62.6853C207.934 63.0812 208.307 63.6365 208.535 64.3512C208.773 65.0549 208.887 65.8796 208.876 66.8252H203.401C203.444 67.5883 203.643 68.1821 203.998 68.6065C204.402 69.0794 204.997 69.3158 205.785 69.3158C206.137 69.3158 206.463 69.2828 206.763 69.2168C207.074 69.1508 207.359 69.0684 207.618 68.9694C207.877 68.8595 208.1 68.755 208.286 68.656V70.2559C207.923 70.4208 207.514 70.5528 207.059 70.6518C206.603 70.7617 206.09 70.8167 205.52 70.8167ZM203.609 64.714C203.532 64.9422 203.476 65.2171 203.44 65.5387H207.217C207.154 64.9014 206.997 64.4231 206.748 64.1038C206.447 63.7079 205.976 63.51 205.334 63.51C204.92 63.51 204.568 63.6035 204.278 63.7904C203.988 63.9663 203.765 64.2742 203.609 64.714ZM210.752 63.0482V70.5693H212.384V63.8069C212.591 63.7739 212.819 63.7409 213.067 63.7079C213.316 63.6749 213.57 63.653 213.828 63.642C214.087 63.62 214.346 63.62 214.605 63.642C214.864 63.653 215.113 63.6749 215.351 63.7079V62.3225C215.237 62.2675 215.097 62.218 214.932 62.174C214.766 62.13 214.553 62.1081 214.295 62.1081C213.787 62.1081 213.285 62.1685 212.788 62.2895C212.29 62.3994 211.86 62.5314 211.498 62.6853C211.135 62.8393 210.887 62.9602 210.752 63.0482ZM216.958 62.9657C217.186 62.8448 217.439 62.7348 217.719 62.6358C218.009 62.5259 218.315 62.4324 218.636 62.3555C218.957 62.2785 219.283 62.218 219.615 62.174C219.946 62.13 220.267 62.1081 220.578 62.1081C221.313 62.1081 221.914 62.218 222.38 62.4379C222.846 62.6468 223.193 62.9767 223.421 63.4275C223.649 63.8674 223.763 64.4227 223.763 65.0934V70.5693H222.131V65.3243C222.131 65.1154 222.106 64.912 222.054 64.714C222.012 64.5051 221.924 64.3182 221.79 64.1533C221.665 63.9773 221.479 63.8399 221.23 63.7409C220.992 63.642 220.676 63.5925 220.283 63.5925C220.003 63.5925 219.713 63.62 219.413 63.6749C219.123 63.7299 218.848 63.8069 218.589 63.9059V70.5693H216.958V62.9657ZM226.885 70.6188C227.278 70.7507 227.755 70.8167 228.314 70.8167C228.822 70.8167 229.314 70.7287 229.79 70.5528C230.267 70.3769 230.65 70.0965 230.94 69.7116C231.24 69.3268 231.396 68.8265 231.406 68.2107C231.406 67.7489 231.328 67.375 231.173 67.0891C231.028 66.8032 230.836 66.5723 230.598 66.3964C230.36 66.2205 230.101 66.0885 229.821 66.0005C229.542 65.9016 229.272 65.8081 229.013 65.7202C228.734 65.6322 228.469 65.5442 228.221 65.4563C227.983 65.3683 227.786 65.2473 227.63 65.0934C227.485 64.9395 227.413 64.7305 227.413 64.4666C227.413 64.1588 227.548 63.9279 227.817 63.7739C228.086 63.609 228.423 63.5265 228.827 63.5265C229.262 63.5265 229.645 63.6035 229.977 63.7574C230.308 63.9114 230.66 64.0928 231.033 64.3017L231.017 62.8173C230.686 62.6304 230.344 62.4709 229.992 62.339C229.65 62.207 229.205 62.1355 228.656 62.1245C228.324 62.1245 227.983 62.174 227.63 62.273C227.289 62.361 226.973 62.5094 226.683 62.7183C226.403 62.9162 226.175 63.1801 225.999 63.51C225.823 63.8289 225.735 64.2192 225.735 64.6811C225.735 65.0989 225.802 65.4508 225.937 65.7367C226.082 66.0225 226.268 66.2589 226.496 66.4459C226.735 66.6218 226.993 66.7648 227.273 66.8747C227.553 66.9737 227.832 67.0616 228.112 67.1386C228.381 67.2376 228.64 67.3365 228.889 67.4355C229.138 67.5345 229.34 67.6554 229.495 67.7984C229.661 67.9413 229.743 68.1392 229.743 68.3921C229.743 68.689 229.614 68.9364 229.355 69.1343C229.106 69.3323 228.759 69.4312 228.314 69.4312C227.962 69.4312 227.641 69.3927 227.351 69.3158C227.071 69.2388 226.802 69.1343 226.543 69.0024C226.284 68.8595 226.02 68.7 225.751 68.5241V70.157C226.123 70.3439 226.501 70.4978 226.885 70.6188ZM108.152 9.22199C107.413 9.95063 107.059 10.6911 107.09 11.4435C107.103 12.2325 107.365 12.8947 107.874 13.4303C108.384 13.9659 109.006 14.2363 109.74 14.2414C110.51 14.2652 111.283 13.922 112.059 13.212C112.613 12.6655 113.176 12.1924 113.747 11.7928C114.319 11.3932 114.927 11.0581 115.571 10.7874C116.196 10.5533 116.903 10.384 117.693 10.2795C118.721 10.1582 119.785 10.1932 120.884 10.3844C122.002 10.6307 123.109 11.0329 124.206 11.5909C125.997 12.5024 127.401 13.6771 128.419 15.1152C129.473 16.5719 130.049 18.1536 130.147 19.8604C130.281 21.5858 129.912 23.3077 129.037 25.0261C128.163 26.7444 126.989 28.0571 125.515 28.964C124.077 29.8896 122.46 30.3552 120.662 30.361C118.882 30.4219 117.096 29.9966 115.305 29.0852C114.208 28.5271 113.259 27.86 112.457 27.0839C111.637 26.3444 110.973 25.5233 110.465 24.6209C109.904 23.5529 109.544 22.5414 109.386 21.5863C109.264 20.6498 109.299 19.5402 109.492 18.2573C109.609 17.2125 109.431 16.3857 108.959 15.777C108.523 15.1869 107.938 14.8434 107.205 14.7465C106.472 14.6497 105.792 14.81 105.165 15.2276C104.52 15.6817 104.13 16.4036 103.994 17.3933C103.742 19.3361 103.73 21.0789 103.958 22.6215C104.185 24.1641 104.752 25.7183 105.659 27.284C106.419 28.6836 107.392 29.9379 108.577 31.0469C109.779 32.2111 111.185 33.2024 112.794 34.0209C115.536 35.416 118.274 36.0497 121.008 35.9221C123.761 35.8496 126.27 35.0784 128.537 33.6082C130.822 32.1933 132.634 30.1696 133.973 27.5373C135.294 24.9415 135.863 22.2854 135.68 19.569C135.515 16.9077 134.661 14.4251 133.118 12.1211C131.593 9.87228 129.459 8.05031 126.717 6.65521C125.072 5.81814 123.424 5.25624 121.775 4.96951C120.126 4.68278 118.54 4.63498 117.016 4.82611C115.253 5.03392 113.663 5.49059 112.245 6.19614C110.846 6.95685 109.481 7.96546 108.152 9.22199Z" fill="#0E161D"/>
</svg>
