<svg width="191" height="26" viewBox="0 0 191 26" fill="none" xmlns="http://www.w3.org/2000/svg">
<path fill-rule="evenodd" clip-rule="evenodd" d="M72.9254 3.46468C72.3514 4.23006 72.5065 5.31586 73.2719 5.88989C74.0372 6.46392 75.123 6.30881 75.6971 5.54343L77.7758 2.77177C78.3498 2.00639 78.1947 0.920591 77.4294 0.34656C76.664 -0.227471 75.5782 -0.0723559 75.0041 0.693018L72.9254 3.46468ZM18.4873 24.8619C18.2013 24.5701 18.0583 24.1437 18.0583 23.5826V22.1014V20.3845V18.6002V16.5803V14.0218V11.0929V10.9583V8.70274V6.21153V4.19164C18.0583 3.60811 18.2013 3.18169 18.4873 2.91237C18.7954 2.62061 19.1474 2.47473 19.5434 2.47473C19.9395 2.47473 20.2805 2.62061 20.5665 2.91237C20.8401 3.17153 20.9922 3.53693 21.0228 4.00858C21.2941 3.78185 21.5821 3.57354 21.8867 3.38368C23.0748 2.64305 24.4279 2.27274 25.9461 2.27274C27.4423 2.27274 28.7844 2.65427 29.9725 3.41734C31.1826 4.15797 32.1397 5.19036 32.8438 6.51452C33.5479 7.81623 33.8999 9.31993 33.8999 11.0256C33.8999 12.3049 33.6909 13.4832 33.2729 14.5604C32.8768 15.6153 32.3158 16.5354 31.5897 17.321C30.8636 18.084 30.0165 18.6788 29.0484 19.1052C28.1023 19.5316 27.0792 19.7448 25.9791 19.7448C24.857 19.7448 23.8119 19.5316 22.8438 19.1052C22.1822 18.7985 21.5771 18.4183 21.0286 17.9649V18.4319V20.4181V22.0004V23.5826C21.0286 24.1437 20.8746 24.5701 20.5665 24.8619C20.2805 25.1537 19.9395 25.2995 19.5434 25.2995C19.1474 25.2995 18.7954 25.1537 18.4873 24.8619ZM21.0286 11.0929C21.0286 11.9009 21.1496 12.6415 21.3916 13.3148C21.6336 13.9881 21.9747 14.5829 22.4147 15.0991C22.8548 15.6153 23.3718 16.0192 23.9659 16.311C24.582 16.5803 25.253 16.715 25.9791 16.715C26.6832 16.715 27.3322 16.5803 27.9263 16.311C28.5424 16.0192 29.0704 15.6265 29.5105 15.1327C29.9505 14.6165 30.2915 14.0106 30.5336 13.3148C30.7976 12.6191 30.9296 11.856 30.9296 11.0256C30.9296 10.1952 30.8086 9.43214 30.5666 8.7364C30.3246 8.04066 29.9835 7.43469 29.5435 6.9185C29.1034 6.4023 28.5754 6.00954 27.9593 5.74022C27.3432 5.44846 26.6722 5.30258 25.9461 5.30258C24.956 5.30258 24.0869 5.54946 23.3388 6.04321C22.6127 6.51452 22.0407 7.17659 21.6226 8.02944C21.2266 8.88228 21.0286 9.85857 21.0286 10.9583V11.0929ZM3.29646 24.0539C3.23045 23.7173 3.28546 23.347 3.46148 22.943C3.57149 22.6961 3.6815 22.438 3.79151 22.1687C3.92353 21.8994 4.04454 21.6301 4.15455 21.3607C4.28656 21.0914 4.40758 20.8221 4.51759 20.5528C4.6496 20.3059 4.77061 20.0478 4.88062 19.7785C4.96863 19.5541 5.05664 19.3409 5.14465 19.1389C5.22139 18.9628 5.29812 18.7952 5.37485 18.6361L5.37568 18.6339C5.38853 18.6077 5.40139 18.581 5.41424 18.5538C5.49994 18.3565 5.57509 18.17 5.6397 17.9943C5.79372 17.6576 5.84873 17.321 5.80472 16.9843C5.76072 16.6252 5.65071 16.2437 5.47469 15.8397C5.29867 15.4357 5.07865 14.9869 4.81462 14.4931C4.55059 13.9994 4.27556 13.4495 3.98953 12.8435C3.76951 12.3722 3.50548 11.8111 3.19745 11.1603C2.88942 10.487 2.55938 9.78001 2.20735 9.03939C1.87731 8.27631 1.53628 7.51324 1.18424 6.75017C0.832204 5.9871 0.50217 5.26892 0.194138 4.59562C-0.025885 4.07942 -0.0588885 3.63056 0.0951275 3.24902C0.249144 2.86748 0.50217 2.59816 0.854207 2.44106C1.20624 2.26152 1.56928 2.23907 1.94332 2.37373C2.33936 2.48595 2.65839 2.80015 2.90042 3.31635C3.20845 4.01209 3.52748 4.7415 3.85752 5.50457C4.20956 6.2452 4.55059 6.98583 4.88062 7.72645C5.23266 8.46708 5.5517 9.16282 5.83772 9.81368C6.14576 10.4645 6.40978 11.0256 6.62981 11.4969C7.00652 12.2814 7.33283 12.9746 7.60876 13.5764L7.61991 13.5505C8.03795 12.6303 8.456 11.6989 8.87404 10.7563C9.29208 9.81368 9.67712 8.92717 10.0292 8.09677C10.2052 7.71523 10.4032 7.25515 10.6232 6.71651C10.8652 6.17787 11.1183 5.61679 11.3823 5.03326C11.6463 4.42729 11.8884 3.86621 12.1084 3.35002C12.3284 2.83382 12.6254 2.50839 12.9995 2.37373C13.3955 2.23907 13.7695 2.25029 14.1216 2.4074C14.4956 2.5645 14.7597 2.83382 14.9137 3.21535C15.0897 3.59689 15.0567 4.04576 14.8147 4.56195C14.6386 4.96593 14.4516 5.38113 14.2536 5.80755C14.0776 6.23398 13.8906 6.6604 13.6925 7.08682C13.5165 7.51324 13.3405 7.91722 13.1645 8.29876C13.0105 8.68029 12.8675 9.01694 12.7354 9.3087C12.2734 10.386 11.7563 11.553 11.1843 12.8099C10.6342 14.0667 10.1062 15.2674 9.60012 16.412C9.09406 17.5566 8.67602 18.4992 8.34599 19.2399L8.08196 19.8458C7.99395 20.0703 7.89494 20.2835 7.78493 20.4855C7.69692 20.6874 7.60891 20.9007 7.5209 21.1251C7.41089 21.3944 7.30088 21.6525 7.19087 21.8994C7.08085 22.1687 6.97084 22.4268 6.86083 22.6737C6.75082 22.943 6.62981 23.2011 6.49779 23.448C6.38778 23.7173 6.27777 23.9754 6.16776 24.2223C5.96974 24.6262 5.71671 24.9068 5.40868 25.0639C5.12265 25.2434 4.82562 25.3108 4.51759 25.2659C4.23156 25.221 3.96753 25.0863 3.72551 24.8619C3.50548 24.6599 3.36247 24.3906 3.29646 24.0539ZM37.6618 23.5826C37.6618 24.1437 37.8048 24.5701 38.0908 24.8619C38.3989 25.1537 38.7509 25.2995 39.1469 25.2995C39.543 25.2995 39.884 25.1537 40.1701 24.8619C40.4781 24.5701 40.6321 24.1437 40.6321 23.5826V22.0004V20.4181V18.4319V17.9649C41.1807 18.4183 41.7857 18.7985 42.4473 19.1052C43.4154 19.5316 44.4605 19.7448 45.5826 19.7448C46.6827 19.7448 47.7058 19.5316 48.6519 19.1052C49.62 18.6788 50.4671 18.084 51.1932 17.321C51.9193 16.5354 52.4803 15.6153 52.8764 14.5604C53.2944 13.4832 53.5034 12.3049 53.5034 11.0256C53.5034 9.31993 53.1514 7.81623 52.4473 6.51452C51.7433 5.19036 50.7862 4.15797 49.576 3.41734C48.3879 2.65427 47.0458 2.27274 45.5496 2.27274C44.0315 2.27274 42.6783 2.64305 41.4902 3.38368C41.1856 3.57354 40.8977 3.78185 40.6263 4.00859C40.5958 3.53694 40.4437 3.17153 40.1701 2.91237C39.884 2.62061 39.543 2.47473 39.1469 2.47473C38.7509 2.47473 38.3989 2.62061 38.0908 2.91237C37.8048 3.18169 37.6618 3.60811 37.6618 4.19164V6.21153V8.70274V10.9583V11.0929V14.0218V16.5803V18.6002V20.3845V22.1014V23.5826ZM40.9951 13.3148C40.7531 12.6415 40.6321 11.9009 40.6321 11.0929V10.9583C40.6321 9.85857 40.8301 8.88228 41.2262 8.02944C41.6442 7.17659 42.2163 6.51452 42.9423 6.04321C43.6904 5.54946 44.5595 5.30258 45.5496 5.30258C46.2757 5.30258 46.9468 5.44846 47.5628 5.74022C48.1789 6.00954 48.7069 6.4023 49.147 6.9185C49.587 7.43469 49.9281 8.04066 50.1701 8.7364C50.4121 9.43214 50.5331 10.1952 50.5331 11.0256C50.5331 11.856 50.4011 12.6191 50.1371 13.3148C49.8951 14.0106 49.554 14.6165 49.114 15.1327C48.6739 15.6265 48.1459 16.0192 47.5298 16.311C46.9358 16.5803 46.2867 16.715 45.5826 16.715C44.8565 16.715 44.1855 16.5803 43.5694 16.311C42.9753 16.0192 42.4583 15.6153 42.0182 15.0991C41.5782 14.5829 41.2372 13.9881 40.9951 13.3148ZM58.4601 4.98476C58.0607 5.37862 57.8695 5.77889 57.8865 6.18559C57.8934 6.61204 58.0347 6.97003 58.3103 7.25954C58.586 7.54904 58.9221 7.69518 59.3187 7.69796C59.7351 7.71079 60.1529 7.5253 60.5721 7.1415C60.8717 6.8461 61.1759 6.5904 61.4848 6.3744C61.7938 6.15841 62.1223 5.97726 62.4704 5.83095C62.8084 5.7044 63.1908 5.61287 63.6177 5.55636C64.1734 5.49083 64.7485 5.50973 65.3427 5.61306C65.9467 5.7462 66.5451 5.9636 67.138 6.26524C68.1064 6.75793 68.8655 7.39294 69.4154 8.17027C69.985 8.95766 70.2963 9.81266 70.3494 10.7353C70.4222 11.6679 70.2223 12.5987 69.7497 13.5275C69.2771 14.4563 68.6425 15.1659 67.8457 15.6561C67.0687 16.1564 66.1943 16.4081 65.2225 16.4112C64.2604 16.4442 63.2951 16.2143 62.3267 15.7216C61.7339 15.42 61.2207 15.0594 60.7874 14.6399C60.3439 14.2401 59.9851 13.7963 59.7108 13.3085C59.4075 12.7312 59.213 12.1844 59.1273 11.6682C59.0615 11.162 59.0805 10.5621 59.1846 9.86872C59.248 9.30393 59.152 8.85702 58.8964 8.52799C58.6607 8.20901 58.3447 8.02334 57.9484 7.97099C57.5521 7.91863 57.1846 8.0053 56.8458 8.23101C56.497 8.47648 56.286 8.8667 56.2129 9.40168C56.0766 10.4519 56.07 11.3939 56.1931 12.2277C56.3162 13.0616 56.6227 13.9017 57.1126 14.748C57.5237 15.5045 58.0495 16.1825 58.6899 16.782C59.34 17.4113 60.0998 17.9471 60.9693 18.3895C62.4515 19.1437 63.9316 19.4862 65.4097 19.4172C66.8974 19.3781 68.2539 18.9612 69.4792 18.1665C70.7142 17.4017 71.6937 16.3078 72.4176 14.8849C73.1315 13.4818 73.4391 12.046 73.3403 10.5777C73.2512 9.1392 72.7896 7.79724 71.9554 6.55184C71.1309 5.33626 69.9776 4.35142 68.4954 3.5973C67.6061 3.14484 66.7157 2.84111 65.8243 2.68612C64.9329 2.53113 64.0753 2.50529 63.2516 2.6086C62.2988 2.72093 61.4393 2.96778 60.673 3.34916C59.9165 3.76035 59.1789 4.30555 58.4601 4.98476Z" fill="#312222"/>
<path d="M86.1223 9.832L88.9823 2.495H90.2693L93.0523 9.832H91.7763L89.3233 3.089L89.7853 3.045L87.3323 9.832H86.1223ZM87.5303 7.841L87.8823 6.851H91.3693L91.4683 7.841H87.5303Z" fill="#312222"/>
<path d="M96.496 9.997C96.1587 9.997 95.8287 9.953 95.506 9.865C95.1833 9.78433 94.89 9.63767 94.626 9.425C94.362 9.205 94.153 8.90067 93.999 8.512C93.845 8.12333 93.768 7.621 93.768 7.005C93.768 6.13233 93.9807 5.443 94.406 4.937C94.8313 4.431 95.4767 4.178 96.342 4.178C96.4813 4.178 96.6537 4.19633 96.859 4.233C97.0643 4.26967 97.2733 4.32467 97.486 4.398C97.6987 4.464 97.8783 4.552 98.025 4.662L97.728 5.047V2H98.872V8.677C98.872 8.90433 98.7987 9.10233 98.652 9.271C98.5127 9.43967 98.3257 9.579 98.091 9.689C97.8563 9.79167 97.5997 9.86867 97.321 9.92C97.0423 9.97133 96.7673 9.997 96.496 9.997ZM96.529 8.996C96.859 8.996 97.1413 8.95567 97.376 8.875C97.6107 8.79433 97.728 8.688 97.728 8.556V5.487C97.5373 5.377 97.3357 5.29633 97.123 5.245C96.9103 5.19367 96.705 5.168 96.507 5.168C96.1477 5.168 95.8507 5.24133 95.616 5.388C95.3887 5.52733 95.22 5.73633 95.11 6.015C95 6.28633 94.945 6.62367 94.945 7.027C94.945 7.39367 94.989 7.72733 95.077 8.028C95.165 8.32133 95.3227 8.556 95.55 8.732C95.7847 8.908 96.111 8.996 96.529 8.996Z" fill="#312222"/>
<path d="M102.941 9.997C102.604 9.997 102.274 9.953 101.951 9.865C101.629 9.78433 101.335 9.63767 101.071 9.425C100.807 9.205 100.598 8.90067 100.444 8.512C100.29 8.12333 100.213 7.621 100.213 7.005C100.213 6.13233 100.426 5.443 100.851 4.937C101.277 4.431 101.922 4.178 102.787 4.178C102.927 4.178 103.099 4.19633 103.304 4.233C103.51 4.26967 103.719 4.32467 103.931 4.398C104.144 4.464 104.324 4.552 104.47 4.662L104.173 5.047V2H105.317V8.677C105.317 8.90433 105.244 9.10233 105.097 9.271C104.958 9.43967 104.771 9.579 104.536 9.689C104.302 9.79167 104.045 9.86867 103.766 9.92C103.488 9.97133 103.213 9.997 102.941 9.997ZM102.974 8.996C103.304 8.996 103.587 8.95567 103.821 8.875C104.056 8.79433 104.173 8.688 104.173 8.556V5.487C103.983 5.377 103.781 5.29633 103.568 5.245C103.356 5.19367 103.15 5.168 102.952 5.168C102.593 5.168 102.296 5.24133 102.061 5.388C101.834 5.52733 101.665 5.73633 101.555 6.015C101.445 6.28633 101.39 6.62367 101.39 7.027C101.39 7.39367 101.434 7.72733 101.522 8.028C101.61 8.32133 101.768 8.556 101.995 8.732C102.23 8.908 102.556 8.996 102.974 8.996Z" fill="#312222"/>
<path d="M106.945 9.832V4.816C107.04 4.75733 107.216 4.67667 107.473 4.574C107.729 4.47133 108.034 4.38333 108.386 4.31C108.738 4.22933 109.093 4.189 109.453 4.189C109.636 4.189 109.786 4.20367 109.904 4.233C110.021 4.26233 110.12 4.29533 110.201 4.332V5.256C110.032 5.234 109.856 5.21933 109.673 5.212C109.489 5.19733 109.306 5.19733 109.123 5.212C108.939 5.21933 108.76 5.234 108.584 5.256C108.408 5.278 108.246 5.3 108.1 5.322V9.832H106.945Z" fill="#312222"/>
<path d="M113.714 9.997C113.172 9.997 112.699 9.887 112.295 9.667C111.899 9.447 111.591 9.12067 111.371 8.688C111.159 8.25533 111.052 7.72733 111.052 7.104C111.052 6.14333 111.276 5.41733 111.723 4.926C112.178 4.42733 112.809 4.178 113.615 4.178C114.209 4.178 114.69 4.31 115.056 4.574C115.423 4.838 115.687 5.20833 115.848 5.685C116.017 6.15433 116.098 6.70433 116.09 7.335H111.745L111.712 6.477H115.21L114.935 6.752C114.913 6.18733 114.796 5.77667 114.583 5.52C114.371 5.256 114.037 5.124 113.582 5.124C113.289 5.124 113.04 5.18633 112.834 5.311C112.629 5.42833 112.471 5.63367 112.361 5.927C112.259 6.213 112.207 6.609 112.207 7.115C112.207 7.731 112.35 8.20033 112.636 8.523C112.922 8.83833 113.344 8.996 113.901 8.996C114.151 8.996 114.382 8.974 114.594 8.93C114.814 8.886 115.016 8.831 115.199 8.765C115.383 8.69167 115.54 8.622 115.672 8.556V9.623C115.416 9.733 115.126 9.821 114.803 9.887C114.481 9.96033 114.118 9.997 113.714 9.997Z" fill="#312222"/>
<path d="M119.013 9.997C118.617 9.997 118.28 9.953 118.001 9.865C117.73 9.78433 117.462 9.68167 117.198 9.557V8.468C117.389 8.58533 117.576 8.69167 117.759 8.787C117.943 8.875 118.133 8.94467 118.331 8.996C118.537 9.04733 118.764 9.073 119.013 9.073C119.329 9.073 119.574 9.007 119.75 8.875C119.934 8.743 120.025 8.578 120.025 8.38C120.025 8.21133 119.967 8.07933 119.849 7.984C119.739 7.88867 119.596 7.808 119.42 7.742C119.244 7.676 119.061 7.61 118.87 7.544C118.672 7.49267 118.474 7.434 118.276 7.368C118.078 7.29467 117.895 7.19933 117.726 7.082C117.565 6.95733 117.433 6.79967 117.33 6.609C117.235 6.41833 117.187 6.18367 117.187 5.905C117.187 5.597 117.25 5.33667 117.374 5.124C117.499 4.904 117.66 4.728 117.858 4.596C118.064 4.45667 118.287 4.35767 118.529 4.299C118.779 4.233 119.021 4.2 119.255 4.2C119.644 4.20733 119.959 4.255 120.201 4.343C120.451 4.431 120.693 4.53733 120.927 4.662L120.938 5.652C120.674 5.51267 120.425 5.39167 120.19 5.289C119.956 5.18633 119.684 5.135 119.376 5.135C119.09 5.135 118.852 5.19 118.661 5.3C118.471 5.40267 118.375 5.55667 118.375 5.762C118.375 5.938 118.427 6.07733 118.529 6.18C118.639 6.28267 118.779 6.36333 118.947 6.422C119.123 6.48067 119.31 6.53933 119.508 6.598C119.692 6.65667 119.882 6.719 120.08 6.785C120.278 6.84367 120.462 6.93167 120.63 7.049C120.799 7.16633 120.935 7.32033 121.037 7.511C121.147 7.70167 121.202 7.951 121.202 8.259C121.195 8.66967 121.085 9.00333 120.872 9.26C120.667 9.51667 120.396 9.70367 120.058 9.821C119.721 9.93833 119.373 9.997 119.013 9.997Z" fill="#312222"/>
<path d="M124.148 9.997C123.752 9.997 123.415 9.953 123.136 9.865C122.865 9.78433 122.597 9.68167 122.333 9.557V8.468C122.524 8.58533 122.711 8.69167 122.894 8.787C123.077 8.875 123.268 8.94467 123.466 8.996C123.671 9.04733 123.899 9.073 124.148 9.073C124.463 9.073 124.709 9.007 124.885 8.875C125.068 8.743 125.16 8.578 125.16 8.38C125.16 8.21133 125.101 8.07933 124.984 7.984C124.874 7.88867 124.731 7.808 124.555 7.742C124.379 7.676 124.196 7.61 124.005 7.544C123.807 7.49267 123.609 7.434 123.411 7.368C123.213 7.29467 123.03 7.19933 122.861 7.082C122.7 6.95733 122.568 6.79967 122.465 6.609C122.37 6.41833 122.322 6.18367 122.322 5.905C122.322 5.597 122.384 5.33667 122.509 5.124C122.634 4.904 122.795 4.728 122.993 4.596C123.198 4.45667 123.422 4.35767 123.664 4.299C123.913 4.233 124.155 4.2 124.39 4.2C124.779 4.20733 125.094 4.255 125.336 4.343C125.585 4.431 125.827 4.53733 126.062 4.662L126.073 5.652C125.809 5.51267 125.56 5.39167 125.325 5.289C125.09 5.18633 124.819 5.135 124.511 5.135C124.225 5.135 123.987 5.19 123.796 5.3C123.605 5.40267 123.51 5.55667 123.51 5.762C123.51 5.938 123.561 6.07733 123.664 6.18C123.774 6.28267 123.913 6.36333 124.082 6.422C124.258 6.48067 124.445 6.53933 124.643 6.598C124.826 6.65667 125.017 6.719 125.215 6.785C125.413 6.84367 125.596 6.93167 125.765 7.049C125.934 7.16633 126.069 7.32033 126.172 7.511C126.282 7.70167 126.337 7.951 126.337 8.259C126.33 8.66967 126.22 9.00333 126.007 9.26C125.802 9.51667 125.53 9.70367 125.193 9.821C124.856 9.93833 124.507 9.997 124.148 9.997Z" fill="#312222"/>
<path d="M127.721 9.832V4.343H128.876L128.887 9.832H127.721ZM127.688 3.43V2.385H128.92V3.43H127.688Z" fill="#312222"/>
<path d="M130.545 4.761C130.707 4.68033 130.886 4.607 131.084 4.541C131.29 4.46767 131.506 4.40533 131.733 4.354C131.961 4.30267 132.192 4.26233 132.426 4.233C132.661 4.20367 132.888 4.189 133.108 4.189C133.629 4.189 134.054 4.26233 134.384 4.409C134.714 4.54833 134.96 4.76833 135.121 5.069C135.283 5.36233 135.363 5.73267 135.363 6.18V9.832H134.208V6.334C134.208 6.19467 134.19 6.059 134.153 5.927C134.124 5.78767 134.062 5.663 133.966 5.553C133.878 5.43567 133.746 5.344 133.57 5.278C133.402 5.212 133.178 5.179 132.899 5.179C132.701 5.179 132.496 5.19733 132.283 5.234C132.078 5.27067 131.884 5.322 131.7 5.388V9.832H130.545V4.761Z" fill="#312222"/>
<path d="M139.18 9.997C138.644 9.98967 138.19 9.87967 137.816 9.667C137.449 9.447 137.17 9.13167 136.98 8.721C136.796 8.31033 136.705 7.81167 136.705 7.225C136.705 6.60167 136.782 6.092 136.936 5.696C137.097 5.3 137.313 4.992 137.585 4.772C137.863 4.552 138.175 4.40167 138.52 4.321C138.872 4.233 139.235 4.189 139.609 4.189C140.005 4.189 140.364 4.24033 140.687 4.343C141.009 4.44567 141.27 4.60333 141.468 4.816C141.666 5.02133 141.765 5.289 141.765 5.619V9.997C141.765 10.2903 141.717 10.5617 141.622 10.811C141.534 11.0677 141.387 11.295 141.182 11.493C140.984 11.691 140.72 11.845 140.39 11.955C140.06 12.065 139.656 12.12 139.18 12.12C138.798 12.12 138.457 12.087 138.157 12.021C137.856 11.9623 137.607 11.9 137.409 11.834V10.778C137.526 10.822 137.673 10.8697 137.849 10.921C138.025 10.9723 138.219 11.0163 138.432 11.053C138.652 11.097 138.875 11.119 139.103 11.119C139.535 11.119 139.858 11.064 140.071 10.954C140.291 10.844 140.437 10.701 140.511 10.525C140.584 10.3563 140.621 10.173 140.621 9.975V9.139L140.929 9.392C140.797 9.502 140.632 9.60467 140.434 9.7C140.243 9.788 140.038 9.85767 139.818 9.909C139.605 9.96767 139.392 9.997 139.18 9.997ZM139.367 9.062C139.579 9.062 139.796 9.03633 140.016 8.985C140.236 8.92633 140.437 8.842 140.621 8.732V5.839C140.621 5.64833 140.569 5.509 140.467 5.421C140.371 5.32567 140.239 5.25967 140.071 5.223C139.902 5.18633 139.722 5.168 139.532 5.168C139.084 5.168 138.74 5.25967 138.498 5.443C138.263 5.619 138.102 5.861 138.014 6.169C137.926 6.477 137.882 6.818 137.882 7.192C137.882 7.74933 138.003 8.20033 138.245 8.545C138.487 8.88967 138.861 9.062 139.367 9.062Z" fill="#312222"/>
<path d="M88.4323 21.832L86.2103 14.495H87.5193L89.2683 20.743H89.0153L90.8633 14.495H91.9083L93.8003 20.831H93.4923L95.2413 14.495H96.5503L94.3173 21.832H93.1073L91.2373 15.848H91.5343L89.6533 21.832H88.4323Z" fill="#312222"/>
<path d="M100.007 21.997C99.1122 21.997 98.4449 21.744 98.0049 21.238C97.5722 20.732 97.3559 20.0097 97.3559 19.071C97.3559 18.0737 97.5796 17.344 98.0269 16.882C98.4816 16.4127 99.1342 16.178 99.9849 16.178C100.594 16.178 101.096 16.2917 101.492 16.519C101.888 16.739 102.181 17.0653 102.372 17.498C102.563 17.9307 102.658 18.455 102.658 19.071C102.658 20.0023 102.427 20.7247 101.965 21.238C101.51 21.744 100.858 21.997 100.007 21.997ZM99.9959 21.018C100.37 21.018 100.667 20.9373 100.887 20.776C101.107 20.6073 101.265 20.3763 101.36 20.083C101.463 19.7897 101.514 19.4523 101.514 19.071C101.514 18.6457 101.463 18.29 101.36 18.004C101.257 17.718 101.096 17.5053 100.876 17.366C100.656 17.2193 100.363 17.146 99.9959 17.146C99.6292 17.146 99.3359 17.223 99.1159 17.377C98.8959 17.531 98.7382 17.751 98.6429 18.037C98.5476 18.323 98.4999 18.6677 98.4999 19.071C98.4999 19.6797 98.6136 20.1563 98.8409 20.501C99.0682 20.8457 99.4532 21.018 99.9959 21.018Z" fill="#312222"/>
<path d="M104.001 21.832V16.816C104.097 16.7573 104.273 16.6767 104.529 16.574C104.786 16.4713 105.09 16.3833 105.442 16.31C105.794 16.2293 106.15 16.189 106.509 16.189C106.693 16.189 106.843 16.2037 106.96 16.233C107.078 16.2623 107.177 16.2953 107.257 16.332V17.256C107.089 17.234 106.913 17.2193 106.729 17.212C106.546 17.1973 106.363 17.1973 106.179 17.212C105.996 17.2193 105.816 17.234 105.64 17.256C105.464 17.278 105.303 17.3 105.156 17.322V21.832H104.001Z" fill="#312222"/>
<path d="M109.297 18.631L111.552 16.31H112.971L109.792 19.335L109.297 18.631ZM109.539 21.832H108.395V14.22H109.55L109.539 21.832ZM110.056 18.257L113.246 21.832H111.761L109.242 19.027L110.056 18.257Z" fill="#312222"/>
<path d="M116.897 21.986C116.758 21.986 116.586 21.9677 116.38 21.931C116.175 21.9017 115.97 21.854 115.764 21.788C115.559 21.7147 115.379 21.6193 115.225 21.502L115.522 21.128V24.043H114.378V17.377C114.378 17.1497 114.448 16.959 114.587 16.805C114.734 16.651 114.925 16.53 115.159 16.442C115.394 16.3467 115.651 16.2807 115.929 16.244C116.215 16.2 116.498 16.178 116.776 16.178C117.268 16.178 117.715 16.2697 118.118 16.453C118.522 16.6363 118.844 16.948 119.086 17.388C119.328 17.8207 119.449 18.4147 119.449 19.17C119.449 19.742 119.35 20.2407 119.152 20.666C118.954 21.084 118.665 21.4103 118.283 21.645C117.902 21.8723 117.44 21.986 116.897 21.986ZM116.688 21.018C117.04 21.018 117.334 20.9447 117.568 20.798C117.803 20.6513 117.979 20.4387 118.096 20.16C118.214 19.8813 118.272 19.544 118.272 19.148C118.272 18.7813 118.228 18.4477 118.14 18.147C118.06 17.8463 117.909 17.6117 117.689 17.443C117.469 17.267 117.154 17.179 116.743 17.179C116.377 17.179 116.08 17.2193 115.852 17.3C115.632 17.3733 115.522 17.4833 115.522 17.63V20.699C115.713 20.8017 115.907 20.8823 116.105 20.941C116.303 20.9923 116.498 21.018 116.688 21.018Z" fill="#312222"/>
<path d="M121.925 21.832H120.781V14.22H121.925V21.832Z" fill="#312222"/>
<path d="M125.554 21.997C125.268 21.997 124.993 21.9677 124.729 21.909C124.465 21.8577 124.223 21.766 124.003 21.634C123.79 21.502 123.618 21.3223 123.486 21.095C123.361 20.8603 123.299 20.5707 123.299 20.226C123.299 19.8153 123.38 19.478 123.541 19.214C123.702 18.95 123.933 18.752 124.234 18.62C124.535 18.488 124.894 18.422 125.312 18.422C125.591 18.422 125.84 18.444 126.06 18.488C126.287 18.532 126.489 18.5943 126.665 18.675C126.848 18.7483 127.002 18.8327 127.127 18.928L127.248 19.687C127.087 19.577 126.87 19.4853 126.599 19.412C126.328 19.3313 126.034 19.291 125.719 19.291C125.301 19.291 124.982 19.3643 124.762 19.511C124.549 19.6577 124.443 19.8777 124.443 20.171C124.443 20.391 124.505 20.5707 124.63 20.71C124.755 20.842 124.909 20.941 125.092 21.007C125.283 21.0657 125.481 21.095 125.686 21.095C126.119 21.095 126.438 21.0657 126.643 21.007C126.848 20.9483 126.951 20.8127 126.951 20.6V18.29C126.951 17.9013 126.834 17.619 126.599 17.443C126.364 17.2597 126.031 17.168 125.598 17.168C125.29 17.168 124.971 17.2193 124.641 17.322C124.311 17.4173 124.04 17.553 123.827 17.729V16.651C124.032 16.5117 124.329 16.4017 124.718 16.321C125.114 16.233 125.521 16.189 125.939 16.189C126.144 16.189 126.35 16.211 126.555 16.255C126.768 16.2917 126.966 16.354 127.149 16.442C127.332 16.5227 127.494 16.6363 127.633 16.783C127.78 16.9223 127.893 17.0947 127.974 17.3C128.055 17.5053 128.095 17.7473 128.095 18.026V20.666C128.095 21.0253 127.981 21.304 127.754 21.502C127.534 21.6927 127.233 21.821 126.852 21.887C126.471 21.9603 126.038 21.997 125.554 21.997Z" fill="#312222"/>
<path d="M132.149 21.942C131.812 21.942 131.482 21.8943 131.159 21.799C130.836 21.7037 130.543 21.5497 130.279 21.337C130.022 21.117 129.817 20.8273 129.663 20.468C129.509 20.1013 129.432 19.6467 129.432 19.104C129.432 18.5467 129.505 18.081 129.652 17.707C129.799 17.333 130 17.036 130.257 16.816C130.514 16.5887 130.803 16.4273 131.126 16.332C131.456 16.2367 131.793 16.189 132.138 16.189C132.431 16.189 132.725 16.2183 133.018 16.277C133.311 16.3283 133.583 16.409 133.832 16.519V17.553C133.583 17.443 133.333 17.3587 133.084 17.3C132.835 17.234 132.574 17.201 132.303 17.201C131.731 17.201 131.298 17.344 131.005 17.63C130.719 17.916 130.576 18.378 130.576 19.016C130.576 19.676 130.712 20.16 130.983 20.468C131.262 20.7687 131.713 20.919 132.336 20.919C132.607 20.919 132.871 20.886 133.128 20.82C133.385 20.7467 133.623 20.6587 133.843 20.556V21.59C133.586 21.7073 133.319 21.7953 133.04 21.854C132.761 21.9127 132.464 21.942 132.149 21.942Z" fill="#312222"/>
<path d="M137.551 21.997C137.008 21.997 136.535 21.887 136.132 21.667C135.736 21.447 135.428 21.1207 135.208 20.688C134.995 20.2553 134.889 19.7273 134.889 19.104C134.889 18.1433 135.113 17.4173 135.56 16.926C136.015 16.4273 136.645 16.178 137.452 16.178C138.046 16.178 138.526 16.31 138.893 16.574C139.26 16.838 139.524 17.2083 139.685 17.685C139.854 18.1543 139.934 18.7043 139.927 19.335H135.582L135.549 18.477H139.047L138.772 18.752C138.75 18.1873 138.633 17.7767 138.42 17.52C138.207 17.256 137.874 17.124 137.419 17.124C137.126 17.124 136.876 17.1863 136.671 17.311C136.466 17.4283 136.308 17.6337 136.198 17.927C136.095 18.213 136.044 18.609 136.044 19.115C136.044 19.731 136.187 20.2003 136.473 20.523C136.759 20.8383 137.181 20.996 137.738 20.996C137.987 20.996 138.218 20.974 138.431 20.93C138.651 20.886 138.853 20.831 139.036 20.765C139.219 20.6917 139.377 20.622 139.509 20.556V21.623C139.252 21.733 138.963 21.821 138.64 21.887C138.317 21.9603 137.954 21.997 137.551 21.997Z" fill="#312222"/>
<path d="M147.582 21.942C146.431 21.942 145.562 21.6303 144.975 21.007C144.388 20.3837 144.095 19.434 144.095 18.158C144.095 16.904 144.385 15.9617 144.964 15.331C145.543 14.693 146.416 14.374 147.582 14.374C147.971 14.374 148.356 14.4217 148.737 14.517C149.126 14.6123 149.5 14.7443 149.859 14.913V16.002C149.5 15.7893 149.14 15.6353 148.781 15.54C148.429 15.4373 148.081 15.386 147.736 15.386C147.201 15.386 146.753 15.4813 146.394 15.672C146.042 15.8627 145.778 16.1597 145.602 16.563C145.433 16.9663 145.349 17.5017 145.349 18.169C145.349 18.8217 145.437 19.3533 145.613 19.764C145.789 20.1673 146.053 20.4643 146.405 20.655C146.764 20.8383 147.219 20.93 147.769 20.93C148.099 20.93 148.44 20.8823 148.792 20.787C149.144 20.6843 149.5 20.5303 149.859 20.325V21.414C149.639 21.524 149.401 21.6193 149.144 21.7C148.887 21.7807 148.627 21.8393 148.363 21.876C148.099 21.92 147.839 21.942 147.582 21.942Z" fill="#312222"/>
<path d="M153.621 21.997C152.726 21.997 152.059 21.744 151.619 21.238C151.186 20.732 150.97 20.0097 150.97 19.071C150.97 18.0737 151.194 17.344 151.641 16.882C152.096 16.4127 152.748 16.178 153.599 16.178C154.208 16.178 154.71 16.2917 155.106 16.519C155.502 16.739 155.795 17.0653 155.986 17.498C156.177 17.9307 156.272 18.455 156.272 19.071C156.272 20.0023 156.041 20.7247 155.579 21.238C155.124 21.744 154.472 21.997 153.621 21.997ZM153.61 21.018C153.984 21.018 154.281 20.9373 154.501 20.776C154.721 20.6073 154.879 20.3763 154.974 20.083C155.077 19.7897 155.128 19.4523 155.128 19.071C155.128 18.6457 155.077 18.29 154.974 18.004C154.871 17.718 154.71 17.5053 154.49 17.366C154.27 17.2193 153.977 17.146 153.61 17.146C153.243 17.146 152.95 17.223 152.73 17.377C152.51 17.531 152.352 17.751 152.257 18.037C152.162 18.323 152.114 18.6677 152.114 19.071C152.114 19.6797 152.228 20.1563 152.455 20.501C152.682 20.8457 153.067 21.018 153.61 21.018Z" fill="#312222"/>
<path d="M157.616 16.761C157.777 16.6803 157.957 16.607 158.155 16.541C158.36 16.4677 158.576 16.4053 158.804 16.354C159.031 16.3027 159.262 16.2623 159.497 16.233C159.731 16.2037 159.959 16.189 160.179 16.189C160.699 16.189 161.125 16.2623 161.455 16.409C161.785 16.5483 162.03 16.7683 162.192 17.069C162.353 17.3623 162.434 17.7327 162.434 18.18V21.832H161.279V18.334C161.279 18.1947 161.26 18.059 161.224 17.927C161.194 17.7877 161.132 17.663 161.037 17.553C160.949 17.4357 160.817 17.344 160.641 17.278C160.472 17.212 160.248 17.179 159.97 17.179C159.772 17.179 159.566 17.1973 159.354 17.234C159.148 17.2707 158.954 17.322 158.771 17.388V21.832H157.616V16.761Z" fill="#312222"/>
<path d="M166.492 21.942C166.155 21.942 165.825 21.8943 165.502 21.799C165.179 21.7037 164.886 21.5497 164.622 21.337C164.365 21.117 164.16 20.8273 164.006 20.468C163.852 20.1013 163.775 19.6467 163.775 19.104C163.775 18.5467 163.848 18.081 163.995 17.707C164.142 17.333 164.343 17.036 164.6 16.816C164.857 16.5887 165.146 16.4273 165.469 16.332C165.799 16.2367 166.136 16.189 166.481 16.189C166.774 16.189 167.068 16.2183 167.361 16.277C167.654 16.3283 167.926 16.409 168.175 16.519V17.553C167.926 17.443 167.676 17.3587 167.427 17.3C167.178 17.234 166.917 17.201 166.646 17.201C166.074 17.201 165.641 17.344 165.348 17.63C165.062 17.916 164.919 18.378 164.919 19.016C164.919 19.676 165.055 20.16 165.326 20.468C165.605 20.7687 166.056 20.919 166.679 20.919C166.95 20.919 167.214 20.886 167.471 20.82C167.728 20.7467 167.966 20.6587 168.186 20.556V21.59C167.929 21.7073 167.662 21.7953 167.383 21.854C167.104 21.9127 166.807 21.942 166.492 21.942Z" fill="#312222"/>
<path d="M171.894 21.997C171.351 21.997 170.878 21.887 170.475 21.667C170.079 21.447 169.771 21.1207 169.551 20.688C169.338 20.2553 169.232 19.7273 169.232 19.104C169.232 18.1433 169.456 17.4173 169.903 16.926C170.358 16.4273 170.988 16.178 171.795 16.178C172.389 16.178 172.869 16.31 173.236 16.574C173.603 16.838 173.867 17.2083 174.028 17.685C174.197 18.1543 174.277 18.7043 174.27 19.335H169.925L169.892 18.477H173.39L173.115 18.752C173.093 18.1873 172.976 17.7767 172.763 17.52C172.55 17.256 172.217 17.124 171.762 17.124C171.469 17.124 171.219 17.1863 171.014 17.311C170.809 17.4283 170.651 17.6337 170.541 17.927C170.438 18.213 170.387 18.609 170.387 19.115C170.387 19.731 170.53 20.2003 170.816 20.523C171.102 20.8383 171.524 20.996 172.081 20.996C172.33 20.996 172.561 20.974 172.774 20.93C172.994 20.886 173.196 20.831 173.379 20.765C173.562 20.6917 173.72 20.622 173.852 20.556V21.623C173.595 21.733 173.306 21.821 172.983 21.887C172.66 21.9603 172.297 21.997 171.894 21.997Z" fill="#312222"/>
<path d="M175.598 21.832V16.816C175.693 16.7573 175.869 16.6767 176.126 16.574C176.383 16.4713 176.687 16.3833 177.039 16.31C177.391 16.2293 177.747 16.189 178.106 16.189C178.289 16.189 178.44 16.2037 178.557 16.233C178.674 16.2623 178.773 16.2953 178.854 16.332V17.256C178.685 17.234 178.509 17.2193 178.326 17.212C178.143 17.1973 177.959 17.1973 177.776 17.212C177.593 17.2193 177.413 17.234 177.237 17.256C177.061 17.278 176.9 17.3 176.753 17.322V21.832H175.598Z" fill="#312222"/>
<path d="M179.992 16.761C180.153 16.6803 180.333 16.607 180.531 16.541C180.736 16.4677 180.952 16.4053 181.18 16.354C181.407 16.3027 181.638 16.2623 181.873 16.233C182.107 16.2037 182.335 16.189 182.555 16.189C183.075 16.189 183.501 16.2623 183.831 16.409C184.161 16.5483 184.406 16.7683 184.568 17.069C184.729 17.3623 184.81 17.7327 184.81 18.18V21.832H183.655V18.334C183.655 18.1947 183.636 18.059 183.6 17.927C183.57 17.7877 183.508 17.663 183.413 17.553C183.325 17.4357 183.193 17.344 183.017 17.278C182.848 17.212 182.624 17.179 182.346 17.179C182.148 17.179 181.942 17.1973 181.73 17.234C181.524 17.2707 181.33 17.322 181.147 17.388V21.832H179.992V16.761Z" fill="#312222"/>
<path d="M188.032 21.997C187.636 21.997 187.298 21.953 187.02 21.865C186.748 21.7843 186.481 21.6817 186.217 21.557V20.468C186.407 20.5853 186.594 20.6917 186.778 20.787C186.961 20.875 187.152 20.9447 187.35 20.996C187.555 21.0473 187.782 21.073 188.032 21.073C188.347 21.073 188.593 21.007 188.769 20.875C188.952 20.743 189.044 20.578 189.044 20.38C189.044 20.2113 188.985 20.0793 188.868 19.984C188.758 19.8887 188.615 19.808 188.439 19.742C188.263 19.676 188.079 19.61 187.889 19.544C187.691 19.4927 187.493 19.434 187.295 19.368C187.097 19.2947 186.913 19.1993 186.745 19.082C186.583 18.9573 186.451 18.7997 186.349 18.609C186.253 18.4183 186.206 18.1837 186.206 17.905C186.206 17.597 186.268 17.3367 186.393 17.124C186.517 16.904 186.679 16.728 186.877 16.596C187.082 16.4567 187.306 16.3577 187.548 16.299C187.797 16.233 188.039 16.2 188.274 16.2C188.662 16.2073 188.978 16.255 189.22 16.343C189.469 16.431 189.711 16.5373 189.946 16.662L189.957 17.652C189.693 17.5127 189.443 17.3917 189.209 17.289C188.974 17.1863 188.703 17.135 188.395 17.135C188.109 17.135 187.87 17.19 187.68 17.3C187.489 17.4027 187.394 17.5567 187.394 17.762C187.394 17.938 187.445 18.0773 187.548 18.18C187.658 18.2827 187.797 18.3633 187.966 18.422C188.142 18.4807 188.329 18.5393 188.527 18.598C188.71 18.6567 188.901 18.719 189.099 18.785C189.297 18.8437 189.48 18.9317 189.649 19.049C189.817 19.1663 189.953 19.3203 190.056 19.511C190.166 19.7017 190.221 19.951 190.221 20.259C190.213 20.6697 190.103 21.0033 189.891 21.26C189.685 21.5167 189.414 21.7037 189.077 21.821C188.739 21.9383 188.391 21.997 188.032 21.997Z" fill="#312222"/>
</svg>
