<svg width="36" height="36" viewBox="0 0 36 36" fill="none" xmlns="http://www.w3.org/2000/svg">
<path d="M18 3C9.72 3 3 9.72 3 18C3 26.28 9.72 33 18 33C26.28 33 33 26.28 33 18C33 9.72 26.28 3 18 3ZM18 30C11.37 30 6 24.63 6 18C6 11.37 11.37 6 18 6C24.63 6 30 11.37 30 18C30 24.63 24.63 30 18 30Z" fill="#009EDB"/>
<path d="M5 18C5 25.1825 10.8175 31 18 31C25.1825 31 31 25.1825 31 18C31 10.8175 25.1825 5 18 5C10.8175 5 5 10.8175 5 18Z" fill="#009EDB"/>
<path d="M15 22.17L10.83 18L9.40997 19.41L15 25L27 13L25.59 11.59L15 22.17Z" fill="white"/>
</svg>
